<!DOCTYPE svg PUBLIC "-//W3C//DTD SVG 1.1//EN" "http://www.w3.org/Graphics/SVG/1.1/DTD/svg11.dtd">
<svg xmlns="http://www.w3.org/2000/svg" xmlns:xlink="http://www.w3.org/1999/xlink" xmlns:jfreesvg="http://www.jfree.org/jfreesvg/svg" width="689" height="436" text-rendering="auto" shape-rendering="auto">
<defs><linearGradient id="_538814985740421gp4" x1="28" y1="0" x2="661" y2="0" gradientUnits="userSpaceOnUse"><stop offset="0%" stop-color="rgb(243,170,121)"/><stop offset="100%" stop-color="rgb(243,170,121)" stop-opacity="0.501961"/></linearGradient>
<linearGradient id="_538814985740421gp6" x1="28" y1="0" x2="661" y2="0" gradientUnits="userSpaceOnUse"><stop offset="0%" stop-color="rgb(230,165,164)"/><stop offset="100%" stop-color="rgb(230,165,164)" stop-opacity="0.501961"/></linearGradient>
<linearGradient id="_538814985740421gp0" x1="28" y1="0" x2="661" y2="0" gradientUnits="userSpaceOnUse"><stop offset="0%" stop-color="rgb(255,248,163)"/><stop offset="100%" stop-color="rgb(255,248,163)" stop-opacity="0.501961"/></linearGradient>
<linearGradient id="_538814985740421gp3" x1="28" y1="0" x2="661" y2="0" gradientUnits="userSpaceOnUse"><stop offset="0%" stop-color="rgb(190,163,122)"/><stop offset="100%" stop-color="rgb(190,163,122)" stop-opacity="0.501961"/></linearGradient>
<linearGradient id="_538814985740421gp8" x1="28" y1="0" x2="661" y2="0" gradientUnits="userSpaceOnUse"><stop offset="0%" stop-color="rgb(92,151,70)"/><stop offset="100%" stop-color="rgb(92,151,70)" stop-opacity="0.501961"/></linearGradient>
<linearGradient id="_538814985740421gp1" x1="28" y1="0" x2="661" y2="0" gradientUnits="userSpaceOnUse"><stop offset="0%" stop-color="rgb(169,204,143)"/><stop offset="100%" stop-color="rgb(169,204,143)" stop-opacity="0.501961"/></linearGradient>
<linearGradient id="_538814985740421gp9" x1="28" y1="0" x2="661" y2="0" gradientUnits="userSpaceOnUse"><stop offset="0%" stop-color="rgb(62,117,167)"/><stop offset="100%" stop-color="rgb(62,117,167)" stop-opacity="0.501961"/></linearGradient>
<linearGradient id="_538814985740421gp7" x1="28" y1="0" x2="661" y2="0" gradientUnits="userSpaceOnUse"><stop offset="0%" stop-color="rgb(248,215,83)"/><stop offset="100%" stop-color="rgb(248,215,83)" stop-opacity="0.501961"/></linearGradient>
<linearGradient id="_538814985740421gp5" x1="28" y1="0" x2="661" y2="0" gradientUnits="userSpaceOnUse"><stop offset="0%" stop-color="rgb(181,181,169)"/><stop offset="100%" stop-color="rgb(181,181,169)" stop-opacity="0.501961"/></linearGradient>
<linearGradient id="_538814985740421gp2" x1="28" y1="0" x2="661" y2="0" gradientUnits="userSpaceOnUse"><stop offset="0%" stop-color="rgb(178,200,217)"/><stop offset="100%" stop-color="rgb(178,200,217)" stop-opacity="0.501961"/></linearGradient>
<clipPath id="_538814985740421clip-0"><path d="M 0 0 L 689 0 L 689 436 L 0 436 L 0 0 Z "/></clipPath>
</defs>
<rect x="0" y="0" width="689" height="436" style="fill: rgb(238,238,238); fill-opacity: 1.0" clip-path="url(#_538814985740421clip-0)"/><g ><text x="258.5" y="18.4" style="fill: rgb(0,0,0); fill-opacity: 1.0; font-family: sans-serif; font-size: 18px; font-weight: bold;" clip-path="url(#_538814985740421clip-0)">Migration Patterns</text></g><g ><text x="164.5" y="36.6" style="fill: rgb(0,0,0); fill-opacity: 1.0; font-family: sans-serif; font-size: 12px; font-weight: bold;" clip-path="url(#_538814985740421clip-0)">Source: https://www.data-to-viz.com/graph/sankey.html</text></g><rect x="8" y="45" width="673" height="387" style="fill: rgb(0,0,0); fill-opacity: 1.0" clip-path="url(#_538814985740421clip-0)"/><rect x="8" y="45" width="20" height="59.92" style="fill: rgb(255,248,163); fill-opacity: 1.0" clip-path="url(#_538814985740421clip-0)"/><g style="fill: url(#_538814985740421gp0); fill-opacity: 0.75; stroke: none" clip-path="url(#_538814985740421clip-0)"><path d="M 31.36 45 C 344.5 45 344.5 45 657.64 45 L 657.64 74.13 C 344.5 74.13 344.5 74.13 31.36 74.13 Z "/></g><g style="fill: url(#_538814985740421gp0); fill-opacity: 0.75; stroke: none" clip-path="url(#_538814985740421clip-0)"><path d="M 31.36 74.13 C 344.5 74.13 344.5 78 657.64 78 L 657.64 97.54 C 344.5 97.54 344.5 93.67 31.36 93.67 Z "/></g><g style="fill: url(#_538814985740421gp0); fill-opacity: 0.75; stroke: none" clip-path="url(#_538814985740421clip-0)"><path d="M 31.36 93.67 C 344.5 93.67 344.5 185.48 657.64 185.48 L 657.64 190.5 C 344.5 190.5 344.5 98.68 31.36 98.68 Z "/></g><g style="fill: url(#_538814985740421gp0); fill-opacity: 0.75; stroke: none" clip-path="url(#_538814985740421clip-0)"><path d="M 31.36 98.68 C 344.5 98.68 344.5 264.94 657.64 264.94 L 657.64 271.17 C 344.5 271.17 344.5 104.92 31.36 104.92 Z "/></g><rect x="8" y="108.79" width="20" height="44.39" style="fill: rgb(169,204,143); fill-opacity: 1.0" clip-path="url(#_538814985740421clip-0)"/><g style="fill: url(#_538814985740421gp1); fill-opacity: 0.75; stroke: none" clip-path="url(#_538814985740421clip-0)"><path d="M 31.36 108.79 C 344.5 108.79 344.5 97.54 657.64 97.54 L 657.64 103.11 C 344.5 103.11 344.5 114.37 31.36 114.37 Z "/></g><g style="fill: url(#_538814985740421gp1); fill-opacity: 0.75; stroke: none" clip-path="url(#_538814985740421clip-0)"><path d="M 31.36 114.37 C 344.5 114.37 344.5 190.5 657.64 190.5 L 657.64 199.51 C 344.5 199.51 344.5 123.39 31.36 123.39 Z "/></g><g style="fill: url(#_538814985740421gp1); fill-opacity: 0.75; stroke: none" clip-path="url(#_538814985740421clip-0)"><path d="M 31.36 123.39 C 344.5 123.39 344.5 271.17 657.64 271.17 L 657.64 279.23 C 344.5 279.23 344.5 131.44 31.36 131.44 Z "/></g><g style="fill: url(#_538814985740421gp1); fill-opacity: 0.75; stroke: none" clip-path="url(#_538814985740421clip-0)"><path d="M 31.36 131.44 C 344.5 131.44 344.5 337.14 657.64 337.14 L 657.64 352.26 C 344.5 352.26 344.5 146.56 31.36 146.56 Z "/></g><g style="fill: url(#_538814985740421gp1); fill-opacity: 0.75; stroke: none" clip-path="url(#_538814985740421clip-0)"><path d="M 31.36 146.56 C 344.5 146.56 344.5 357.47 657.64 357.47 L 657.64 360.57 C 344.5 360.57 344.5 149.65 31.36 149.65 Z "/></g><g style="fill: url(#_538814985740421gp1); fill-opacity: 0.75; stroke: none" clip-path="url(#_538814985740421clip-0)"><path d="M 31.36 149.65 C 344.5 149.65 344.5 372.01 657.64 372.01 L 657.64 375.53 C 344.5 375.53 344.5 153.18 31.36 153.18 Z "/></g><rect x="8" y="157.05" width="20" height="22.26" style="fill: rgb(178,200,217); fill-opacity: 1.0" clip-path="url(#_538814985740421clip-0)"/><g style="fill: url(#_538814985740421gp2); fill-opacity: 0.75; stroke: none" clip-path="url(#_538814985740421clip-0)"><path d="M 31.36 157.05 C 344.5 157.05 344.5 103.11 657.64 103.11 L 657.64 125.37 C 344.5 125.37 344.5 179.31 31.36 179.31 Z "/></g><rect x="8" y="183.18" width="20" height="58.12" style="fill: rgb(190,163,122); fill-opacity: 1.0" clip-path="url(#_538814985740421clip-0)"/><g style="fill: url(#_538814985740421gp3); fill-opacity: 0.75; stroke: none" clip-path="url(#_538814985740421clip-0)"><path d="M 31.36 183.18 C 344.5 183.18 344.5 125.37 657.64 125.37 L 657.64 141.71 C 344.5 141.71 344.5 199.52 31.36 199.52 Z "/></g><g style="fill: url(#_538814985740421gp3); fill-opacity: 0.75; stroke: none" clip-path="url(#_538814985740421clip-0)"><path d="M 31.36 199.52 C 344.5 199.52 344.5 199.51 657.64 199.51 L 657.64 233.14 C 344.5 233.14 344.5 233.15 31.36 233.15 Z "/></g><g style="fill: url(#_538814985740421gp3); fill-opacity: 0.75; stroke: none" clip-path="url(#_538814985740421clip-0)"><path d="M 31.36 233.15 C 344.5 233.15 344.5 386.65 657.64 386.65 L 657.64 394.8 C 344.5 394.8 344.5 241.3 31.36 241.3 Z "/></g><rect x="8" y="245.17" width="20" height="13.84" style="fill: rgb(243,170,121); fill-opacity: 1.0" clip-path="url(#_538814985740421clip-0)"/><g style="fill: url(#_538814985740421gp4); fill-opacity: 0.75; stroke: none" clip-path="url(#_538814985740421clip-0)"><path d="M 31.36 245.17 C 344.5 245.17 344.5 141.71 657.64 141.71 L 657.64 152.98 C 344.5 152.98 344.5 256.44 31.36 256.44 Z "/></g><g style="fill: url(#_538814985740421gp4); fill-opacity: 0.75; stroke: none" clip-path="url(#_538814985740421clip-0)"><path d="M 31.36 256.44 C 344.5 256.44 344.5 233.14 657.64 233.14 L 657.64 235.71 C 344.5 235.71 344.5 259.01 31.36 259.01 Z "/></g><rect x="8" y="262.88" width="20" height="3.35" style="fill: rgb(181,181,169); fill-opacity: 1.0" clip-path="url(#_538814985740421clip-0)"/><g style="fill: url(#_538814985740421gp5); fill-opacity: 0.75; stroke: none" clip-path="url(#_538814985740421clip-0)"><path d="M 31.36 262.88 C 344.5 262.88 344.5 152.98 657.64 152.98 L 657.64 154.56 C 344.5 154.56 344.5 264.46 31.36 264.46 Z "/></g><g style="fill: url(#_538814985740421gp5); fill-opacity: 0.75; stroke: none" clip-path="url(#_538814985740421clip-0)"><path d="M 31.36 264.46 C 344.5 264.46 344.5 360.57 657.64 360.57 L 657.64 362.33 C 344.5 362.33 344.5 266.22 31.36 266.22 Z "/></g><rect x="8" y="270.09" width="20" height="25.32" style="fill: rgb(230,165,164); fill-opacity: 1.0" clip-path="url(#_538814985740421clip-0)"/><g style="fill: url(#_538814985740421gp6); fill-opacity: 0.75; stroke: none" clip-path="url(#_538814985740421clip-0)"><path d="M 31.36 270.09 C 344.5 270.09 344.5 154.56 657.64 154.56 L 657.64 158.91 C 344.5 158.91 344.5 274.44 31.36 274.44 Z "/></g><g style="fill: url(#_538814985740421gp6); fill-opacity: 0.75; stroke: none" clip-path="url(#_538814985740421clip-0)"><path d="M 31.36 274.44 C 344.5 274.44 344.5 235.71 657.64 235.71 L 657.64 245.52 C 344.5 245.52 344.5 284.25 31.36 284.25 Z "/></g><g style="fill: url(#_538814985740421gp6); fill-opacity: 0.75; stroke: none" clip-path="url(#_538814985740421clip-0)"><path d="M 31.36 284.25 C 344.5 284.25 344.5 352.26 657.64 352.26 L 657.64 353.6 C 344.5 353.6 344.5 285.59 31.36 285.59 Z "/></g><g style="fill: url(#_538814985740421gp6); fill-opacity: 0.75; stroke: none" clip-path="url(#_538814985740421clip-0)"><path d="M 31.36 285.59 C 344.5 285.59 344.5 362.33 657.64 362.33 L 657.64 364.92 C 344.5 364.92 344.5 288.18 31.36 288.18 Z "/></g><g style="fill: url(#_538814985740421gp6); fill-opacity: 0.75; stroke: none" clip-path="url(#_538814985740421clip-0)"><path d="M 31.36 288.18 C 344.5 288.18 344.5 375.53 657.64 375.53 L 657.64 382.78 C 344.5 382.78 344.5 295.42 31.36 295.42 Z "/></g><rect x="8" y="299.29" width="20" height="87.65" style="fill: rgb(248,215,83); fill-opacity: 1.0" clip-path="url(#_538814985740421clip-0)"/><g style="fill: url(#_538814985740421gp7); fill-opacity: 0.75; stroke: none" clip-path="url(#_538814985740421clip-0)"><path d="M 31.36 299.29 C 344.5 299.29 344.5 158.91 657.64 158.91 L 657.64 171.8 C 344.5 171.8 344.5 312.18 31.36 312.18 Z "/></g><g style="fill: url(#_538814985740421gp7); fill-opacity: 0.75; stroke: none" clip-path="url(#_538814985740421clip-0)"><path d="M 31.36 312.18 C 344.5 312.18 344.5 245.52 657.64 245.52 L 657.64 259.5 C 344.5 259.5 344.5 326.16 31.36 326.16 Z "/></g><g style="fill: url(#_538814985740421gp7); fill-opacity: 0.75; stroke: none" clip-path="url(#_538814985740421clip-0)"><path d="M 31.36 326.16 C 344.5 326.16 344.5 279.23 657.64 279.23 L 657.64 324.67 C 344.5 324.67 344.5 371.6 31.36 371.6 Z "/></g><g style="fill: url(#_538814985740421gp7); fill-opacity: 0.75; stroke: none" clip-path="url(#_538814985740421clip-0)"><path d="M 31.36 371.6 C 344.5 371.6 344.5 364.92 657.64 364.92 L 657.64 368.14 C 344.5 368.14 344.5 374.82 31.36 374.82 Z "/></g><g style="fill: url(#_538814985740421gp7); fill-opacity: 0.75; stroke: none" clip-path="url(#_538814985740421clip-0)"><path d="M 31.36 374.82 C 344.5 374.82 344.5 398.67 657.64 398.67 L 657.64 410.79 C 344.5 410.79 344.5 386.94 31.36 386.94 Z "/></g><rect x="8" y="390.81" width="20" height="22.99" style="fill: rgb(92,151,70); fill-opacity: 1.0" clip-path="url(#_538814985740421clip-0)"/><g style="fill: url(#_538814985740421gp8); fill-opacity: 0.75; stroke: none" clip-path="url(#_538814985740421clip-0)"><path d="M 31.36 390.81 C 344.5 390.81 344.5 171.8 657.64 171.8 L 657.64 177.44 C 344.5 177.44 344.5 396.46 31.36 396.46 Z "/></g><g style="fill: url(#_538814985740421gp8); fill-opacity: 0.75; stroke: none" clip-path="url(#_538814985740421clip-0)"><path d="M 31.36 396.46 C 344.5 396.46 344.5 414.66 657.64 414.66 L 657.64 432 C 344.5 432 344.5 413.8 31.36 413.8 Z "/></g><rect x="8" y="417.67" width="20" height="14.33" style="fill: rgb(62,117,167); fill-opacity: 1.0" clip-path="url(#_538814985740421clip-0)"/><g style="fill: url(#_538814985740421gp9); fill-opacity: 0.75; stroke: none" clip-path="url(#_538814985740421clip-0)"><path d="M 31.36 417.67 C 344.5 417.67 344.5 177.44 657.64 177.44 L 657.64 181.61 C 344.5 181.61 344.5 421.84 31.36 421.84 Z "/></g><g style="fill: url(#_538814985740421gp9); fill-opacity: 0.75; stroke: none" clip-path="url(#_538814985740421clip-0)"><path d="M 31.36 421.84 C 344.5 421.84 344.5 259.5 657.64 259.5 L 657.64 261.07 C 344.5 261.07 344.5 423.4 31.36 423.4 Z "/></g><g style="fill: url(#_538814985740421gp9); fill-opacity: 0.75; stroke: none" clip-path="url(#_538814985740421clip-0)"><path d="M 31.36 423.4 C 344.5 423.4 344.5 324.67 657.64 324.67 L 657.64 333.27 C 344.5 333.27 344.5 432 31.36 432 Z "/></g><rect x="661" y="45" width="20" height="29.13" style="fill: rgb(255,248,163); fill-opacity: 1.0" clip-path="url(#_538814985740421clip-0)"/><rect x="661" y="78" width="20" height="103.61" style="fill: rgb(178,200,217); fill-opacity: 1.0" clip-path="url(#_538814985740421clip-0)"/><rect x="661" y="185.48" width="20" height="75.58" style="fill: rgb(243,170,121); fill-opacity: 1.0" clip-path="url(#_538814985740421clip-0)"/><rect x="661" y="264.94" width="20" height="68.33" style="fill: rgb(62,117,167); fill-opacity: 1.0" clip-path="url(#_538814985740421clip-0)"/><rect x="661" y="337.14" width="20" height="16.47" style="fill: rgb(169,204,143); fill-opacity: 1.0" clip-path="url(#_538814985740421clip-0)"/><rect x="661" y="357.47" width="20" height="10.66" style="fill: rgb(181,181,169); fill-opacity: 1.0" clip-path="url(#_538814985740421clip-0)"/><rect x="661" y="372.01" width="20" height="10.77" style="fill: rgb(230,165,164); fill-opacity: 1.0" clip-path="url(#_538814985740421clip-0)"/><rect x="661" y="386.65" width="20" height="8.15" style="fill: rgb(190,163,122); fill-opacity: 1.0" clip-path="url(#_538814985740421clip-0)"/><rect x="661" y="398.67" width="20" height="12.12" style="fill: rgb(248,215,83); fill-opacity: 1.0" clip-path="url(#_538814985740421clip-0)"/><rect x="661" y="414.66" width="20" height="17.34" style="fill: rgb(92,151,70); fill-opacity: 1.0" clip-path="url(#_538814985740421clip-0)"/><g ><text x="33.37" y="217.21" style="fill: rgb(255,255,255); fill-opacity: 1.0; font-family: sans-serif; font-size: 12px; font-weight: bold;" clip-path="url(#_538814985740421clip-0)">Latin America</text></g><g ><text x="33.37" y="257.06" style="fill: rgb(255,255,255); fill-opacity: 1.0; font-family: sans-serif; font-size: 12px; font-weight: bold;" clip-path="url(#_538814985740421clip-0)">North America</text></g><g ><text x="594.64" y="304.07" style="fill: rgb(255,255,255); fill-opacity: 1.0; font-family: sans-serif; font-size: 12px; font-weight: bold;" clip-path="url(#_538814985740421clip-0)">West Asia</text></g><g ><text x="612.64" y="134.77" style="fill: rgb(255,255,255); fill-opacity: 1.0; font-family: sans-serif; font-size: 12px; font-weight: bold;" clip-path="url(#_538814985740421clip-0)">Europe</text></g><g ><text x="619.64" y="64.53" style="fill: rgb(255,255,255); fill-opacity: 1.0; font-family: sans-serif; font-size: 12px; font-weight: bold;" clip-path="url(#_538814985740421clip-0)">Africa</text></g><g ><text x="598.64" y="350.34" style="fill: rgb(255,255,255); fill-opacity: 1.0; font-family: sans-serif; font-size: 12px; font-weight: bold;" clip-path="url(#_538814985740421clip-0)">East Asia</text></g><g ><text x="33.37" y="173.15" style="fill: rgb(255,255,255); fill-opacity: 1.0; font-family: sans-serif; font-size: 12px; font-weight: bold;" clip-path="url(#_538814985740421clip-0)">Europe</text></g><g ><text x="33.37" y="407.27" style="fill: rgb(255,255,255); fill-opacity: 1.0; font-family: sans-serif; font-size: 12px; font-weight: bold;" clip-path="url(#_538814985740421clip-0)">Soviet Union</text></g><g ><text x="566.64" y="228.24" style="fill: rgb(255,255,255); fill-opacity: 1.0; font-family: sans-serif; font-size: 12px; font-weight: bold;" clip-path="url(#_538814985740421clip-0)">North America</text></g><g ><text x="33.37" y="287.73" style="fill: rgb(255,255,255); fill-opacity: 1.0; font-family: sans-serif; font-size: 12px; font-weight: bold;" clip-path="url(#_538814985740421clip-0)">South East Asia</text></g><g ><text x="606.64" y="367.77" style="fill: rgb(255,255,255); fill-opacity: 1.0; font-family: sans-serif; font-size: 12px; font-weight: bold;" clip-path="url(#_538814985740421clip-0)">Oceania</text></g><g ><text x="570.64" y="395.69" style="fill: rgb(255,255,255); fill-opacity: 1.0; font-family: sans-serif; font-size: 12px; font-weight: bold;" clip-path="url(#_538814985740421clip-0)">Latin America</text></g><g ><text x="588.64" y="409.7" style="fill: rgb(255,255,255); fill-opacity: 1.0; font-family: sans-serif; font-size: 12px; font-weight: bold;" clip-path="url(#_538814985740421clip-0)">South Asia</text></g><g ><text x="558.64" y="382.36" style="fill: rgb(255,255,255); fill-opacity: 1.0; font-family: sans-serif; font-size: 12px; font-weight: bold;" clip-path="url(#_538814985740421clip-0)">South East Asia</text></g><g ><text x="33.37" y="79.93" style="fill: rgb(255,255,255); fill-opacity: 1.0; font-family: sans-serif; font-size: 12px; font-weight: bold;" clip-path="url(#_538814985740421clip-0)">Africa</text></g><g ><text x="33.37" y="269.52" style="fill: rgb(255,255,255); fill-opacity: 1.0; font-family: sans-serif; font-size: 12px; font-weight: bold;" clip-path="url(#_538814985740421clip-0)">Oceania</text></g><g ><text x="33.37" y="348.08" style="fill: rgb(255,255,255); fill-opacity: 1.0; font-family: sans-serif; font-size: 12px; font-weight: bold;" clip-path="url(#_538814985740421clip-0)">South Asia</text></g><g ><text x="33.37" y="135.96" style="fill: rgb(255,255,255); fill-opacity: 1.0; font-family: sans-serif; font-size: 12px; font-weight: bold;" clip-path="url(#_538814985740421clip-0)">East Asia</text></g><g ><text x="576.64" y="428.3" style="fill: rgb(255,255,255); fill-opacity: 1.0; font-family: sans-serif; font-size: 12px; font-weight: bold;" clip-path="url(#_538814985740421clip-0)">Soviet Union</text></g><g ><text x="33.37" y="429.8" style="fill: rgb(255,255,255); fill-opacity: 1.0; font-family: sans-serif; font-size: 12px; font-weight: bold;" clip-path="url(#_538814985740421clip-0)">West Asia</text></g></svg>
