<!DOCTYPE svg PUBLIC "-//W3C//DTD SVG 1.1//EN" "http://www.w3.org/Graphics/SVG/1.1/DTD/svg11.dtd">
<svg xmlns="http://www.w3.org/2000/svg" xmlns:xlink="http://www.w3.org/1999/xlink" xmlns:jfreesvg="http://www.jfree.org/jfreesvg/svg" width="710" height="411" text-rendering="auto" shape-rendering="auto">
<defs><clipPath id="_236552051442646clip-0"><path d="M 0 0 L 710 0 L 710 411 L 0 411 L 0 0 Z "/></clipPath>
<clipPath id="_236552051442646clip-1"><path d="M 5 27 L 5 383 L 705 383 L 705 27 Z "/></clipPath>
</defs>
<rect x="0" y="0" width="710" height="411" style="fill: rgb(255,255,255); fill-opacity: 1.0" clip-path="url(#_236552051442646clip-0)"/><g ><text x="267.5" y="21.01" style="fill: rgb(0,0,0); fill-opacity: 1.0; font-family: Tahoma; font-size: 20px; font-weight: bold;" clip-path="url(#_236552051442646clip-0)">Pie Chart Demo 2</text></g><rect x="233.5" y="389" width="243" height="21" style="fill: rgb(255,255,255); fill-opacity: 1.0" clip-path="url(#_236552051442646clip-0)"/><g style="fill: rgb(160,160,255); fill-opacity: 1.0; stroke: none" clip-path="url(#_236552051442646clip-0)"><path d="M 244.5 399.5 C 244.5 401.71 242.71 403.5 240.5 403.5 C 238.29 403.5 236.5 401.71 236.5 399.5 C 236.5 397.29 238.29 395.5 240.5 395.5 C 242.71 395.5 244.5 397.29 244.5 399.5 Z "/></g><g style="stroke-width: 0.5;stroke: rgb(128,128,128);stroke-opacity: 1.0;stroke-linecap: round;stroke-linejoin: round;shape-rendering:geometricPrecision;; fill: none" clip-path="url(#_236552051442646clip-0)"><path d="M 244.5 399.5 C 244.5 401.71 242.71 403.5 240.5 403.5 C 238.29 403.5 236.5 401.71 236.5 399.5 C 236.5 397.29 238.29 395.5 240.5 395.5 C 242.71 395.5 244.5 397.29 244.5 399.5 Z "/></g><g ><text x="248.5" y="404.01" style="fill: rgb(64,64,64); fill-opacity: 1.0; font-family: Tahoma; font-size: 12px;" clip-path="url(#_236552051442646clip-0)">One</text></g><g style="fill: rgb(128,128,223); fill-opacity: 1.0; stroke: none" clip-path="url(#_236552051442646clip-0)"><path d="M 283.5 399.5 C 283.5 401.71 281.71 403.5 279.5 403.5 C 277.29 403.5 275.5 401.71 275.5 399.5 C 275.5 397.29 277.29 395.5 279.5 395.5 C 281.71 395.5 283.5 397.29 283.5 399.5 Z "/></g><g style="stroke-width: 0.5;stroke: rgb(128,128,128);stroke-opacity: 1.0;stroke-linecap: round;stroke-linejoin: round;shape-rendering:geometricPrecision;; fill: none" clip-path="url(#_236552051442646clip-0)"><path d="M 283.5 399.5 C 283.5 401.71 281.71 403.5 279.5 403.5 C 277.29 403.5 275.5 401.71 275.5 399.5 C 275.5 397.29 277.29 395.5 279.5 395.5 C 281.71 395.5 283.5 397.29 283.5 399.5 Z "/></g><g ><text x="287.5" y="404.01" style="fill: rgb(64,64,64); fill-opacity: 1.0; font-family: Tahoma; font-size: 12px;" clip-path="url(#_236552051442646clip-0)">Two</text></g><g style="fill: rgb(96,96,191); fill-opacity: 1.0; stroke: none" clip-path="url(#_236552051442646clip-0)"><path d="M 324.5 399.5 C 324.5 401.71 322.71 403.5 320.5 403.5 C 318.29 403.5 316.5 401.71 316.5 399.5 C 316.5 397.29 318.29 395.5 320.5 395.5 C 322.71 395.5 324.5 397.29 324.5 399.5 Z "/></g><g style="stroke-width: 0.5;stroke: rgb(128,128,128);stroke-opacity: 1.0;stroke-linecap: round;stroke-linejoin: round;shape-rendering:geometricPrecision;; fill: none" clip-path="url(#_236552051442646clip-0)"><path d="M 324.5 399.5 C 324.5 401.71 322.71 403.5 320.5 403.5 C 318.29 403.5 316.5 401.71 316.5 399.5 C 316.5 397.29 318.29 395.5 320.5 395.5 C 322.71 395.5 324.5 397.29 324.5 399.5 Z "/></g><g ><text x="328.5" y="404.01" style="fill: rgb(64,64,64); fill-opacity: 1.0; font-family: Tahoma; font-size: 12px;" clip-path="url(#_236552051442646clip-0)">Three</text></g><g style="fill: rgb(64,64,159); fill-opacity: 1.0; stroke: none" clip-path="url(#_236552051442646clip-0)"><path d="M 372.5 399.5 C 372.5 401.71 370.71 403.5 368.5 403.5 C 366.29 403.5 364.5 401.71 364.5 399.5 C 364.5 397.29 366.29 395.5 368.5 395.5 C 370.71 395.5 372.5 397.29 372.5 399.5 Z "/></g><g style="stroke-width: 0.5;stroke: rgb(128,128,128);stroke-opacity: 1.0;stroke-linecap: round;stroke-linejoin: round;shape-rendering:geometricPrecision;; fill: none" clip-path="url(#_236552051442646clip-0)"><path d="M 372.5 399.5 C 372.5 401.71 370.71 403.5 368.5 403.5 C 366.29 403.5 364.5 401.71 364.5 399.5 C 364.5 397.29 366.29 395.5 368.5 395.5 C 370.71 395.5 372.5 397.29 372.5 399.5 Z "/></g><g ><text x="376.5" y="404.01" style="fill: rgb(64,64,64); fill-opacity: 1.0; font-family: Tahoma; font-size: 12px;" clip-path="url(#_236552051442646clip-0)">Four</text></g><g style="fill: rgb(32,32,127); fill-opacity: 1.0; stroke: none" clip-path="url(#_236552051442646clip-0)"><path d="M 414.5 399.5 C 414.5 401.71 412.71 403.5 410.5 403.5 C 408.29 403.5 406.5 401.71 406.5 399.5 C 406.5 397.29 408.29 395.5 410.5 395.5 C 412.71 395.5 414.5 397.29 414.5 399.5 Z "/></g><g style="stroke-width: 0.5;stroke: rgb(128,128,128);stroke-opacity: 1.0;stroke-linecap: round;stroke-linejoin: round;shape-rendering:geometricPrecision;; fill: none" clip-path="url(#_236552051442646clip-0)"><path d="M 414.5 399.5 C 414.5 401.71 412.71 403.5 410.5 403.5 C 408.29 403.5 406.5 401.71 406.5 399.5 C 406.5 397.29 408.29 395.5 410.5 395.5 C 412.71 395.5 414.5 397.29 414.5 399.5 Z "/></g><g ><text x="418.5" y="404.01" style="fill: rgb(64,64,64); fill-opacity: 1.0; font-family: Tahoma; font-size: 12px;" clip-path="url(#_236552051442646clip-0)">Five</text></g><g style="fill: rgb(0,0,111); fill-opacity: 1.0; stroke: none" clip-path="url(#_236552051442646clip-0)"><path d="M 453.5 399.5 C 453.5 401.71 451.71 403.5 449.5 403.5 C 447.29 403.5 445.5 401.71 445.5 399.5 C 445.5 397.29 447.29 395.5 449.5 395.5 C 451.71 395.5 453.5 397.29 453.5 399.5 Z "/></g><g style="stroke-width: 0.5;stroke: rgb(128,128,128);stroke-opacity: 1.0;stroke-linecap: round;stroke-linejoin: round;shape-rendering:geometricPrecision;; fill: none" clip-path="url(#_236552051442646clip-0)"><path d="M 453.5 399.5 C 453.5 401.71 451.71 403.5 449.5 403.5 C 447.29 403.5 445.5 401.71 445.5 399.5 C 445.5 397.29 447.29 395.5 449.5 395.5 C 451.71 395.5 453.5 397.29 453.5 399.5 Z "/></g><g ><text x="457.5" y="404.01" style="fill: rgb(64,64,64); fill-opacity: 1.0; font-family: Tahoma; font-size: 12px;" clip-path="url(#_236552051442646clip-0)">Six</text></g><rect x="5" y="27" width="700" height="356" style="fill: rgb(192,192,192); fill-opacity: 1.0" clip-path="url(#_236552051442646clip-0)"/><rect x="5" y="27" width="700" height="356" style="stroke-width: 0.5;stroke: rgb(0,0,0);stroke-opacity: 1.0;stroke-linecap: round;stroke-linejoin: round;shape-rendering:crispEdges;; fill: none" clip-path="url(#_236552051442646clip-0)"/><g style="fill: rgb(128,128,128); fill-opacity: 1.0; stroke: none" clip-path="url(#_236552051442646clip-1)"><path d="M 359 60.67 C 412.43 60.67 461.72 89.4 488.06 135.88 C 514.4 182.37 513.7 239.42 486.24 285.25 L 359 209 Z "/></g><g style="fill: rgb(128,128,128); fill-opacity: 1.0; stroke: none" clip-path="url(#_236552051442646clip-1)"><path d="M 507.24 306.2 C 494.76 327.03 477.36 344.47 456.56 357 L 380 229.95 Z "/></g><g style="fill: rgb(128,128,128); fill-opacity: 1.0; stroke: none" clip-path="url(#_236552051442646clip-1)"><path d="M 435.56 336.05 C 376.42 371.69 300.5 361.8 252.46 312.21 L 359 209 Z "/></g><g style="fill: rgb(128,128,128); fill-opacity: 1.0; stroke: none" clip-path="url(#_236552051442646clip-1)"><path d="M 252.46 312.21 C 222.59 281.37 207.54 239.11 211.21 196.33 L 359 209 Z "/></g><g style="fill: rgb(128,128,128); fill-opacity: 1.0; stroke: none" clip-path="url(#_236552051442646clip-1)"><path d="M 211.21 196.33 C 213.49 169.7 222.93 144.17 238.53 122.46 L 359 209 Z "/></g><g style="fill: rgb(128,128,128); fill-opacity: 1.0; stroke: none" clip-path="url(#_236552051442646clip-1)"><path d="M 238.53 122.46 C 266.4 83.67 311.24 60.67 359 60.67 L 359 209 Z "/></g><g style="fill: rgb(160,160,255); fill-opacity: 1.0; stroke: none" clip-path="url(#_236552051442646clip-1)"><path d="M 355 56.67 C 408.43 56.67 457.72 85.4 484.06 131.88 C 510.4 178.37 509.7 235.42 482.24 281.25 L 355 205 Z "/></g><g style="stroke-width: 0.5;stroke: rgb(128,128,128);stroke-opacity: 1.0;stroke-linecap: round;stroke-linejoin: round;shape-rendering:geometricPrecision;; fill: none" clip-path="url(#_236552051442646clip-1)"><path d="M 355 56.67 C 408.43 56.67 457.72 85.4 484.06 131.88 C 510.4 178.37 509.7 235.42 482.24 281.25 L 355 205 Z "/></g><g style="fill: rgb(128,128,223); fill-opacity: 1.0; stroke: none" clip-path="url(#_236552051442646clip-1)"><path d="M 503.24 302.2 C 490.76 323.03 473.36 340.47 452.56 353 L 376 225.95 Z "/></g><g style="stroke-width: 0.5;stroke: rgb(128,128,128);stroke-opacity: 1.0;stroke-linecap: round;stroke-linejoin: round;shape-rendering:geometricPrecision;; fill: none" clip-path="url(#_236552051442646clip-1)"><path d="M 503.24 302.2 C 490.76 323.03 473.36 340.47 452.56 353 L 376 225.95 Z "/></g><g style="fill: rgb(96,96,191); fill-opacity: 1.0; stroke: none" clip-path="url(#_236552051442646clip-1)"><path d="M 431.56 332.05 C 372.42 367.69 296.5 357.8 248.46 308.21 L 355 205 Z "/></g><g style="stroke-width: 0.5;stroke: rgb(128,128,128);stroke-opacity: 1.0;stroke-linecap: round;stroke-linejoin: round;shape-rendering:geometricPrecision;; fill: none" clip-path="url(#_236552051442646clip-1)"><path d="M 431.56 332.05 C 372.42 367.69 296.5 357.8 248.46 308.21 L 355 205 Z "/></g><g style="fill: rgb(64,64,159); fill-opacity: 1.0; stroke: none" clip-path="url(#_236552051442646clip-1)"><path d="M 248.46 308.21 C 218.59 277.37 203.54 235.11 207.21 192.33 L 355 205 Z "/></g><g style="stroke-width: 0.5;stroke: rgb(128,128,128);stroke-opacity: 1.0;stroke-linecap: round;stroke-linejoin: round;shape-rendering:geometricPrecision;; fill: none" clip-path="url(#_236552051442646clip-1)"><path d="M 248.46 308.21 C 218.59 277.37 203.54 235.11 207.21 192.33 L 355 205 Z "/></g><g style="fill: rgb(32,32,127); fill-opacity: 1.0; stroke: none" clip-path="url(#_236552051442646clip-1)"><path d="M 207.21 192.33 C 209.49 165.7 218.93 140.17 234.53 118.46 L 355 205 Z "/></g><g style="stroke-width: 0.5;stroke: rgb(128,128,128);stroke-opacity: 1.0;stroke-linecap: round;stroke-linejoin: round;shape-rendering:geometricPrecision;; fill: none" clip-path="url(#_236552051442646clip-1)"><path d="M 207.21 192.33 C 209.49 165.7 218.93 140.17 234.53 118.46 L 355 205 Z "/></g><g style="fill: rgb(0,0,111); fill-opacity: 1.0; stroke: none" clip-path="url(#_236552051442646clip-1)"><path d="M 234.53 118.46 C 262.4 79.67 307.24 56.67 355 56.67 L 355 205 Z "/></g><g style="stroke-width: 0.5;stroke: rgb(128,128,128);stroke-opacity: 1.0;stroke-linecap: round;stroke-linejoin: round;shape-rendering:geometricPrecision;; fill: none" clip-path="url(#_236552051442646clip-1)"><path d="M 234.53 118.46 C 262.4 79.67 307.24 56.67 355 56.67 L 355 205 Z "/></g><g style="fill: rgb(151,151,151); fill-opacity: 0.5019608; stroke: none" clip-path="url(#_236552051442646clip-1)"><path d="M 403.5 142.5 L 512.5 142.5 L 512.5 161.5 L 403.5 161.5 L 403.5 142.5 Z "/></g><g style="fill: rgb(220,220,220); fill-opacity: 1.0; stroke: none" clip-path="url(#_236552051442646clip-1)"><path d="M 399.5 138.5 L 508.5 138.5 L 508.5 157.5 L 399.5 157.5 L 399.5 138.5 Z "/></g><g style="stroke-width: 0.5;stroke: rgb(0,0,0);stroke-opacity: 1.0;stroke-linecap: square;shape-rendering:geometricPrecision;; fill: none" clip-path="url(#_236552051442646clip-1)"><path d="M 399.5 138.5 L 508.5 138.5 L 508.5 157.5 L 399.5 157.5 L 399.5 138.5 Z "/></g><g ><text x="401.5" y="153.02" style="fill: rgb(0,0,0); fill-opacity: 1.0; font-family: Tahoma; font-size: 12px;" clip-path="url(#_236552051442646clip-1)">One (34% percent)</text></g><g style="fill: rgb(151,151,151); fill-opacity: 0.5019608; stroke: none" clip-path="url(#_236552051442646clip-1)"><path d="M 387 279.5 L 491 279.5 L 491 298.5 L 387 298.5 L 387 279.5 Z "/></g><g style="fill: rgb(220,220,220); fill-opacity: 1.0; stroke: none" clip-path="url(#_236552051442646clip-1)"><path d="M 383 275.5 L 487 275.5 L 487 294.5 L 383 294.5 L 383 275.5 Z "/></g><g style="stroke-width: 0.5;stroke: rgb(0,0,0);stroke-opacity: 1.0;stroke-linecap: square;shape-rendering:geometricPrecision;; fill: none" clip-path="url(#_236552051442646clip-1)"><path d="M 383 275.5 L 487 275.5 L 487 294.5 L 383 294.5 L 383 275.5 Z "/></g><g ><text x="385" y="290.02" style="fill: rgb(0,0,0); fill-opacity: 1.0; font-family: Tahoma; font-size: 12px;" clip-path="url(#_236552051442646clip-1)">Two (8% percent)</text></g><g style="fill: rgb(151,151,151); fill-opacity: 0.5019608; stroke: none" clip-path="url(#_236552051442646clip-1)"><path d="M 285 311.5 L 403 311.5 L 403 330.5 L 285 330.5 L 285 311.5 Z "/></g><g style="fill: rgb(220,220,220); fill-opacity: 1.0; stroke: none" clip-path="url(#_236552051442646clip-1)"><path d="M 281 307.5 L 399 307.5 L 399 326.5 L 281 326.5 L 281 307.5 Z "/></g><g style="stroke-width: 0.5;stroke: rgb(0,0,0);stroke-opacity: 1.0;stroke-linecap: square;shape-rendering:geometricPrecision;; fill: none" clip-path="url(#_236552051442646clip-1)"><path d="M 281 307.5 L 399 307.5 L 399 326.5 L 281 326.5 L 281 307.5 Z "/></g><g ><text x="283" y="322.02" style="fill: rgb(0,0,0); fill-opacity: 1.0; font-family: Tahoma; font-size: 12px;" clip-path="url(#_236552051442646clip-1)">Three (21% percent)</text></g><g style="fill: rgb(151,151,151); fill-opacity: 0.5019608; stroke: none" clip-path="url(#_236552051442646clip-1)"><path d="M 195 237.5 L 307 237.5 L 307 256.5 L 195 256.5 L 195 237.5 Z "/></g><g style="fill: rgb(220,220,220); fill-opacity: 1.0; stroke: none" clip-path="url(#_236552051442646clip-1)"><path d="M 191 233.5 L 303 233.5 L 303 252.5 L 191 252.5 L 191 233.5 Z "/></g><g style="stroke-width: 0.5;stroke: rgb(0,0,0);stroke-opacity: 1.0;stroke-linecap: square;shape-rendering:geometricPrecision;; fill: none" clip-path="url(#_236552051442646clip-1)"><path d="M 191 233.5 L 303 233.5 L 303 252.5 L 191 252.5 L 191 233.5 Z "/></g><g ><text x="193" y="248.02" style="fill: rgb(0,0,0); fill-opacity: 1.0; font-family: Tahoma; font-size: 12px;" clip-path="url(#_236552051442646clip-1)">Four (14% percent)</text></g><g style="fill: rgb(151,151,151); fill-opacity: 0.5019608; stroke: none" clip-path="url(#_236552051442646clip-1)"><path d="M 201 159.5 L 303 159.5 L 303 178.5 L 201 178.5 L 201 159.5 Z "/></g><g style="fill: rgb(220,220,220); fill-opacity: 1.0; stroke: none" clip-path="url(#_236552051442646clip-1)"><path d="M 197 155.5 L 299 155.5 L 299 174.5 L 197 174.5 L 197 155.5 Z "/></g><g style="stroke-width: 0.5;stroke: rgb(0,0,0);stroke-opacity: 1.0;stroke-linecap: square;shape-rendering:geometricPrecision;; fill: none" clip-path="url(#_236552051442646clip-1)"><path d="M 197 155.5 L 299 155.5 L 299 174.5 L 197 174.5 L 197 155.5 Z "/></g><g ><text x="199" y="170.02" style="fill: rgb(0,0,0); fill-opacity: 1.0; font-family: Tahoma; font-size: 12px;" clip-path="url(#_236552051442646clip-1)">Five (9% percent)</text></g><g style="fill: rgb(151,151,151); fill-opacity: 0.5019608; stroke: none" clip-path="url(#_236552051442646clip-1)"><path d="M 255 97.5 L 359 97.5 L 359 116.5 L 255 116.5 L 255 97.5 Z "/></g><g style="fill: rgb(220,220,220); fill-opacity: 1.0; stroke: none" clip-path="url(#_236552051442646clip-1)"><path d="M 251 93.5 L 355 93.5 L 355 112.5 L 251 112.5 L 251 93.5 Z "/></g><g style="stroke-width: 0.5;stroke: rgb(0,0,0);stroke-opacity: 1.0;stroke-linecap: square;shape-rendering:geometricPrecision;; fill: none" clip-path="url(#_236552051442646clip-1)"><path d="M 251 93.5 L 355 93.5 L 355 112.5 L 251 112.5 L 251 93.5 Z "/></g><g ><text x="253" y="108.02" style="fill: rgb(0,0,0); fill-opacity: 1.0; font-family: Tahoma; font-size: 12px;" clip-path="url(#_236552051442646clip-1)">Six (15% percent)</text></g><rect x="5" y="27" width="700" height="356" style="stroke-width: 0.5;stroke: rgb(0,0,0);stroke-opacity: 1.0;stroke-linecap: round;stroke-linejoin: round;shape-rendering:crispEdges;; fill: none" clip-path="url(#_236552051442646clip-0)"/></svg>
