<!DOCTYPE svg PUBLIC "-//W3C//DTD SVG 1.1//EN" "http://www.w3.org/Graphics/SVG/1.1/DTD/svg11.dtd">
<svg xmlns="http://www.w3.org/2000/svg" xmlns:xlink="http://www.w3.org/1999/xlink" xmlns:jfreesvg="http://www.jfree.org/jfreesvg/svg" width="689" height="436" text-rendering="auto" shape-rendering="auto">
<defs><clipPath id="_506311309284191clip-0"><path d="M 0 0 L 689 0 L 689 436 L 0 436 L 0 0 Z "/></clipPath>
<clipPath id="_506311309284191clip-1"><path d="M 225 186 L 225 875 L -211 875 L -211 186 L 225 186 Z "/></clipPath>
<clipPath id="_506311309284191clip-2"><path d="M 57 67 L 57 344 L 677 344 L 677 67 Z "/></clipPath>
</defs>
<rect x="0" y="0" width="689" height="436" style="fill: rgb(255,255,255); fill-opacity: 1.0" clip-path="url(#_506311309284191clip-0)"/><g ><text x="175.5" y="21.01" style="fill: rgb(0,0,0); fill-opacity: 1.0; font-family: Tahoma; font-size: 20px; font-weight: bold;" clip-path="url(#_506311309284191clip-0)">Antidepressant Medication Usage</text></g><g ><text x="11" y="39.6" style="fill: rgb(0,0,0); fill-opacity: 1.0; font-family: sans-serif; font-size: 12px; font-weight: bold;" clip-path="url(#_506311309284191clip-0)">Percentage of adults aged 18 and over who used antidepressant medication over past 30 days, by age and </text></g><g ><text x="249.5" y="54.6" style="fill: rgb(0,0,0); fill-opacity: 1.0; font-family: sans-serif; font-size: 12px; font-weight: bold;" clip-path="url(#_506311309284191clip-0)">sex: United States, 2015-2018</text></g><g ><text x="363" y="431.67" style="fill: rgb(0,0,0); fill-opacity: 1.0; font-family: sans-serif; font-size: 10px;" clip-path="url(#_506311309284191clip-0)">Source: https://www.cdc.gov/nchs/products/databriefs/db377.htm</text></g><rect x="291" y="399" width="107" height="21" style="fill: rgb(255,255,255); fill-opacity: 1.0" clip-path="url(#_506311309284191clip-0)"/><g style="fill: rgb(255,85,85); fill-opacity: 1.0; stroke: none" clip-path="url(#_506311309284191clip-0)"><path d="M 294 405.5 L 302 405.5 L 302 413.5 L 294 413.5 L 294 405.5 Z "/></g><g ><text x="306" y="414.01" style="fill: rgb(64,64,64); fill-opacity: 1.0; font-family: Tahoma; font-size: 12px;" clip-path="url(#_506311309284191clip-0)">Males</text></g><g style="fill: rgb(85,85,255); fill-opacity: 1.0; stroke: none" clip-path="url(#_506311309284191clip-0)"><path d="M 341 405.5 L 349 405.5 L 349 413.5 L 341 413.5 L 341 405.5 Z "/></g><g ><text x="353" y="414.01" style="fill: rgb(64,64,64); fill-opacity: 1.0; font-family: Tahoma; font-size: 12px;" clip-path="url(#_506311309284191clip-0)">Females</text></g><rect x="57" y="67" width="620" height="277" style="fill: rgb(192,192,192); fill-opacity: 1.0" clip-path="url(#_506311309284191clip-0)"/><line x1="57" y1="348" x2="677" y2="348" style="stroke-width: 0.5;stroke: rgb(128,128,128);stroke-opacity: 1.0;stroke-linecap: square;shape-rendering:crispEdges;" clip-path="url(#_506311309284191clip-0)"/><line x1="160.33" y1="348" x2="160.33" y2="348" style="stroke-width: 0.5;stroke: rgb(128,128,128);stroke-opacity: 1.0;stroke-linecap: square;shape-rendering:crispEdges;" clip-path="url(#_506311309284191clip-0)"/><line x1="160.33" y1="348" x2="160.33" y2="350" style="stroke-width: 0.5;stroke: rgb(128,128,128);stroke-opacity: 1.0;stroke-linecap: square;shape-rendering:crispEdges;" clip-path="url(#_506311309284191clip-0)"/><line x1="367" y1="348" x2="367" y2="348" style="stroke-width: 0.5;stroke: rgb(128,128,128);stroke-opacity: 1.0;stroke-linecap: square;shape-rendering:crispEdges;" clip-path="url(#_506311309284191clip-0)"/><line x1="367" y1="348" x2="367" y2="350" style="stroke-width: 0.5;stroke: rgb(128,128,128);stroke-opacity: 1.0;stroke-linecap: square;shape-rendering:crispEdges;" clip-path="url(#_506311309284191clip-0)"/><line x1="573.67" y1="348" x2="573.67" y2="348" style="stroke-width: 0.5;stroke: rgb(128,128,128);stroke-opacity: 1.0;stroke-linecap: square;shape-rendering:crispEdges;" clip-path="url(#_506311309284191clip-0)"/><line x1="573.67" y1="348" x2="573.67" y2="350" style="stroke-width: 0.5;stroke: rgb(128,128,128);stroke-opacity: 1.0;stroke-linecap: square;shape-rendering:crispEdges;" clip-path="url(#_506311309284191clip-0)"/><g ><text x="136.83" y="366.01" style="fill: rgb(64,64,64); fill-opacity: 1.0; font-family: Tahoma; font-size: 12px;" clip-path="url(#_506311309284191clip-0)">18 to 39</text></g><g ><text x="347" y="366.01" style="fill: rgb(64,64,64); fill-opacity: 1.0; font-family: Tahoma; font-size: 12px;" clip-path="url(#_506311309284191clip-0)">40 - 59</text></g><g ><text x="541.17" y="366.01" style="fill: rgb(64,64,64); fill-opacity: 1.0; font-family: Tahoma; font-size: 12px;" clip-path="url(#_506311309284191clip-0)">60 and over</text></g><g ><text x="320" y="390.11" style="fill: rgb(64,64,64); fill-opacity: 1.0; font-family: Tahoma; font-size: 14px; font-weight: bold;" clip-path="url(#_506311309284191clip-0)">Age Category</text></g><line x1="53" y1="67" x2="53" y2="344" style="stroke-width: 0.5;stroke: rgb(128,128,128);stroke-opacity: 1.0;stroke-linecap: square;shape-rendering:crispEdges;" clip-path="url(#_506311309284191clip-0)"/><g ><text x="40" y="349.02" style="fill: rgb(64,64,64); fill-opacity: 1.0; font-family: Tahoma; font-size: 12px;" clip-path="url(#_506311309284191clip-0)">0</text></g><line x1="51" y1="344" x2="53" y2="344" style="stroke-width: 0.5;stroke: rgb(128,128,128);stroke-opacity: 1.0;stroke-linecap: square;shape-rendering:crispEdges;" clip-path="url(#_506311309284191clip-0)"/><g ><text x="40" y="327.31" style="fill: rgb(64,64,64); fill-opacity: 1.0; font-family: Tahoma; font-size: 12px;" clip-path="url(#_506311309284191clip-0)">2</text></g><line x1="51" y1="322.29" x2="53" y2="322.29" style="stroke-width: 0.5;stroke: rgb(128,128,128);stroke-opacity: 1.0;stroke-linecap: square;shape-rendering:crispEdges;" clip-path="url(#_506311309284191clip-0)"/><g ><text x="40" y="305.6" style="fill: rgb(64,64,64); fill-opacity: 1.0; font-family: Tahoma; font-size: 12px;" clip-path="url(#_506311309284191clip-0)">4</text></g><line x1="51" y1="300.57" x2="53" y2="300.57" style="stroke-width: 0.5;stroke: rgb(128,128,128);stroke-opacity: 1.0;stroke-linecap: square;shape-rendering:crispEdges;" clip-path="url(#_506311309284191clip-0)"/><g ><text x="40" y="283.88" style="fill: rgb(64,64,64); fill-opacity: 1.0; font-family: Tahoma; font-size: 12px;" clip-path="url(#_506311309284191clip-0)">6</text></g><line x1="51" y1="278.86" x2="53" y2="278.86" style="stroke-width: 0.5;stroke: rgb(128,128,128);stroke-opacity: 1.0;stroke-linecap: square;shape-rendering:crispEdges;" clip-path="url(#_506311309284191clip-0)"/><g ><text x="40" y="262.17" style="fill: rgb(64,64,64); fill-opacity: 1.0; font-family: Tahoma; font-size: 12px;" clip-path="url(#_506311309284191clip-0)">8</text></g><line x1="51" y1="257.15" x2="53" y2="257.15" style="stroke-width: 0.5;stroke: rgb(128,128,128);stroke-opacity: 1.0;stroke-linecap: square;shape-rendering:crispEdges;" clip-path="url(#_506311309284191clip-0)"/><g ><text x="33" y="240.46" style="fill: rgb(64,64,64); fill-opacity: 1.0; font-family: Tahoma; font-size: 12px;" clip-path="url(#_506311309284191clip-0)">10</text></g><line x1="51" y1="235.44" x2="53" y2="235.44" style="stroke-width: 0.5;stroke: rgb(128,128,128);stroke-opacity: 1.0;stroke-linecap: square;shape-rendering:crispEdges;" clip-path="url(#_506311309284191clip-0)"/><g ><text x="33" y="218.75" style="fill: rgb(64,64,64); fill-opacity: 1.0; font-family: Tahoma; font-size: 12px;" clip-path="url(#_506311309284191clip-0)">12</text></g><line x1="51" y1="213.72" x2="53" y2="213.72" style="stroke-width: 0.5;stroke: rgb(128,128,128);stroke-opacity: 1.0;stroke-linecap: square;shape-rendering:crispEdges;" clip-path="url(#_506311309284191clip-0)"/><g ><text x="33" y="197.03" style="fill: rgb(64,64,64); fill-opacity: 1.0; font-family: Tahoma; font-size: 12px;" clip-path="url(#_506311309284191clip-0)">14</text></g><line x1="51" y1="192.01" x2="53" y2="192.01" style="stroke-width: 0.5;stroke: rgb(128,128,128);stroke-opacity: 1.0;stroke-linecap: square;shape-rendering:crispEdges;" clip-path="url(#_506311309284191clip-0)"/><g ><text x="33" y="175.32" style="fill: rgb(64,64,64); fill-opacity: 1.0; font-family: Tahoma; font-size: 12px;" clip-path="url(#_506311309284191clip-0)">16</text></g><line x1="51" y1="170.3" x2="53" y2="170.3" style="stroke-width: 0.5;stroke: rgb(128,128,128);stroke-opacity: 1.0;stroke-linecap: square;shape-rendering:crispEdges;" clip-path="url(#_506311309284191clip-0)"/><g ><text x="33" y="153.61" style="fill: rgb(64,64,64); fill-opacity: 1.0; font-family: Tahoma; font-size: 12px;" clip-path="url(#_506311309284191clip-0)">18</text></g><line x1="51" y1="148.59" x2="53" y2="148.59" style="stroke-width: 0.5;stroke: rgb(128,128,128);stroke-opacity: 1.0;stroke-linecap: square;shape-rendering:crispEdges;" clip-path="url(#_506311309284191clip-0)"/><g ><text x="33" y="131.89" style="fill: rgb(64,64,64); fill-opacity: 1.0; font-family: Tahoma; font-size: 12px;" clip-path="url(#_506311309284191clip-0)">20</text></g><line x1="51" y1="126.87" x2="53" y2="126.87" style="stroke-width: 0.5;stroke: rgb(128,128,128);stroke-opacity: 1.0;stroke-linecap: square;shape-rendering:crispEdges;" clip-path="url(#_506311309284191clip-0)"/><g ><text x="33" y="110.18" style="fill: rgb(64,64,64); fill-opacity: 1.0; font-family: Tahoma; font-size: 12px;" clip-path="url(#_506311309284191clip-0)">22</text></g><line x1="51" y1="105.16" x2="53" y2="105.16" style="stroke-width: 0.5;stroke: rgb(128,128,128);stroke-opacity: 1.0;stroke-linecap: square;shape-rendering:crispEdges;" clip-path="url(#_506311309284191clip-0)"/><g ><text x="33" y="88.47" style="fill: rgb(64,64,64); fill-opacity: 1.0; font-family: Tahoma; font-size: 12px;" clip-path="url(#_506311309284191clip-0)">24</text></g><line x1="51" y1="83.45" x2="53" y2="83.45" style="stroke-width: 0.5;stroke: rgb(128,128,128);stroke-opacity: 1.0;stroke-linecap: square;shape-rendering:crispEdges;" clip-path="url(#_506311309284191clip-0)"/><g style="fill: rgb(64,64,64); fill-opacity: 1.0; stroke: none" transform="matrix(0,-1,1,0,-186,225)" clip-path="url(#_506311309284191clip-1)"><path d="M 1.89 204.14 Q 1.89 204.85 1.66 205.5 Q 1.44 206.14 1.01 206.57 Q 0.75 206.84 0.44 207.06 Q 0.13 207.29 -0.25 207.44 Q -0.62 207.6 -1.06 207.69 Q -1.5 207.78 -2.05 207.78 L -3.39 207.78 L -3.39 211.11 L -5.95 211.11 L -5.95 200.93 L -2 200.93 Q -1.11 200.93 -0.48 201.09 Q 0.16 201.25 0.68 201.6 Q 1.26 201.98 1.57 202.62 Q 1.89 203.26 1.89 204.14 Z  M -0.74 204.2 Q -0.74 203.77 -0.94 203.46 Q -1.15 203.15 -1.44 203.04 Q -1.8 202.88 -2.13 202.85 Q -2.46 202.83 -3.03 202.83 L -3.39 202.83 L -3.39 205.88 L -3.21 205.88 Q -2.85 205.88 -2.53 205.87 Q -2.21 205.87 -1.97 205.82 Q -1.76 205.79 -1.53 205.69 Q -1.31 205.59 -1.18 205.47 Q -0.92 205.22 -0.83 204.94 Q -0.74 204.67 -0.74 204.2 Z  M 6.85 211.31 Q 4.67 211.31 3.51 210.27 Q 2.36 209.24 2.36 207.31 Q 2.36 205.43 3.44 204.31 Q 4.52 203.19 6.46 203.19 Q 8.22 203.19 9.11 204.14 Q 10 205.09 10 206.86 L 10 207.72 L 4.75 207.72 Q 4.79 208.26 4.98 208.62 Q 5.17 208.98 5.49 209.19 Q 5.79 209.4 6.2 209.49 Q 6.61 209.58 7.1 209.58 Q 7.52 209.58 7.92 209.49 Q 8.32 209.4 8.66 209.25 Q 8.95 209.12 9.2 208.97 Q 9.45 208.82 9.61 208.7 L 9.86 208.7 L 9.86 210.68 Q 9.57 210.79 9.32 210.89 Q 9.08 210.99 8.66 211.09 Q 8.27 211.2 7.85 211.26 Q 7.44 211.31 6.85 211.31 Z  M 7.64 206.28 Q 7.62 205.52 7.29 205.13 Q 6.96 204.73 6.27 204.73 Q 5.58 204.73 5.18 205.15 Q 4.79 205.56 4.75 206.28 Z  M 16.07 205.69 L 15.87 205.69 Q 15.74 205.65 15.48 205.62 Q 15.22 205.6 14.9 205.6 Q 14.53 205.6 14.11 205.71 Q 13.7 205.82 13.31 205.97 L 13.31 211.11 L 10.92 211.11 L 10.92 203.43 L 13.31 203.43 L 13.31 204.53 Q 13.47 204.38 13.76 204.15 Q 14.05 203.92 14.29 203.79 Q 14.55 203.63 14.9 203.52 Q 15.24 203.4 15.55 203.4 Q 15.67 203.4 15.81 203.41 Q 15.95 203.42 16.07 203.43 Z  M 20.68 211.31 Q 19.73 211.31 18.94 211.07 Q 18.15 210.83 17.57 210.34 Q 17 209.84 16.68 209.08 Q 16.36 208.33 16.36 207.3 Q 16.36 206.2 16.7 205.43 Q 17.05 204.66 17.65 204.16 Q 18.22 203.68 19 203.45 Q 19.77 203.22 20.61 203.22 Q 21.25 203.22 21.89 203.37 Q 22.52 203.51 23.16 203.83 L 23.16 205.89 L 22.86 205.89 Q 22.71 205.75 22.5 205.58 Q 22.3 205.42 22.05 205.28 Q 21.79 205.14 21.46 205.04 Q 21.13 204.94 20.73 204.94 Q 19.81 204.94 19.31 205.58 Q 18.81 206.22 18.81 207.3 Q 18.81 208.46 19.35 209.02 Q 19.88 209.59 20.77 209.59 Q 21.22 209.59 21.56 209.49 Q 21.91 209.39 22.15 209.24 Q 22.39 209.1 22.56 208.94 Q 22.73 208.79 22.86 208.67 L 23.16 208.67 L 23.16 210.72 Q 22.96 210.81 22.69 210.92 Q 22.42 211.04 22.14 211.12 Q 21.79 211.21 21.49 211.26 Q 21.18 211.31 20.68 211.31 Z  M 27.85 211.31 Q 25.67 211.31 24.51 210.27 Q 23.36 209.24 23.36 207.31 Q 23.36 205.43 24.44 204.31 Q 25.52 203.19 27.46 203.19 Q 29.22 203.19 30.11 204.14 Q 31 205.09 31 206.86 L 31 207.72 L 25.75 207.72 Q 25.79 208.26 25.98 208.62 Q 26.17 208.98 26.49 209.19 Q 26.79 209.4 27.2 209.49 Q 27.61 209.58 28.1 209.58 Q 28.52 209.58 28.92 209.49 Q 29.32 209.4 29.66 209.25 Q 29.95 209.12 30.2 208.97 Q 30.45 208.82 30.61 208.7 L 30.86 208.7 L 30.86 210.68 Q 30.57 210.79 30.32 210.89 Q 30.08 210.99 29.66 211.09 Q 29.27 211.2 28.85 211.26 Q 28.44 211.31 27.85 211.31 Z  M 28.64 206.28 Q 28.62 205.52 28.29 205.13 Q 27.96 204.73 27.27 204.73 Q 26.58 204.73 26.18 205.15 Q 25.79 205.56 25.75 206.28 Z  M 39.11 211.11 L 36.7 211.11 L 36.7 207.3 Q 36.7 206.84 36.66 206.37 Q 36.63 205.91 36.52 205.69 Q 36.4 205.43 36.17 205.32 Q 35.94 205.21 35.55 205.21 Q 35.25 205.21 34.95 205.32 Q 34.65 205.43 34.31 205.67 L 34.31 211.11 L 31.92 211.11 L 31.92 203.43 L 34.31 203.43 L 34.31 204.28 Q 34.9 203.78 35.45 203.5 Q 36.01 203.22 36.69 203.22 Q 37.86 203.22 38.49 203.96 Q 39.11 204.7 39.11 206.11 Z  M 43.86 211.26 Q 42.39 211.26 41.73 210.66 Q 41.06 210.06 41.06 208.69 L 41.06 205.1 L 40.14 205.1 L 40.14 203.43 L 41.06 203.43 L 41.06 201.24 L 43.45 201.24 L 43.45 203.43 L 45.76 203.43 L 45.76 205.1 L 43.45 205.1 L 43.45 207.82 Q 43.45 208.22 43.46 208.52 Q 43.47 208.83 43.57 209.06 Q 43.66 209.3 43.91 209.44 Q 44.15 209.58 44.61 209.58 Q 44.81 209.58 45.12 209.5 Q 45.43 209.42 45.55 209.35 L 45.76 209.35 L 45.76 211.04 Q 45.37 211.14 44.93 211.2 Q 44.49 211.26 43.86 211.26 Z "/></g><line x1="160.33" y1="67" x2="160.33" y2="344" style="stroke-width: 0.5;stroke: rgb(255,255,255);stroke-opacity: 1.0;stroke-linejoin: bevel;stroke-dasharray: 2.0, 2.0;shape-rendering:crispEdges;" clip-path="url(#_506311309284191clip-2)"/><line x1="367" y1="67" x2="367" y2="344" style="stroke-width: 0.5;stroke: rgb(255,255,255);stroke-opacity: 1.0;stroke-linejoin: bevel;stroke-dasharray: 2.0, 2.0;shape-rendering:crispEdges;" clip-path="url(#_506311309284191clip-2)"/><line x1="573.67" y1="67" x2="573.67" y2="344" style="stroke-width: 0.5;stroke: rgb(255,255,255);stroke-opacity: 1.0;stroke-linejoin: bevel;stroke-dasharray: 2.0, 2.0;shape-rendering:crispEdges;" clip-path="url(#_506311309284191clip-2)"/><line x1="57" y1="344" x2="677" y2="344" style="stroke-width: 0.5;stroke: rgb(255,255,255);stroke-opacity: 1.0;stroke-linejoin: bevel;stroke-dasharray: 2.0, 2.0;shape-rendering:crispEdges;" clip-path="url(#_506311309284191clip-2)"/><line x1="57" y1="322.29" x2="677" y2="322.29" style="stroke-width: 0.5;stroke: rgb(255,255,255);stroke-opacity: 1.0;stroke-linejoin: bevel;stroke-dasharray: 2.0, 2.0;shape-rendering:crispEdges;" clip-path="url(#_506311309284191clip-2)"/><line x1="57" y1="300.57" x2="677" y2="300.57" style="stroke-width: 0.5;stroke: rgb(255,255,255);stroke-opacity: 1.0;stroke-linejoin: bevel;stroke-dasharray: 2.0, 2.0;shape-rendering:crispEdges;" clip-path="url(#_506311309284191clip-2)"/><line x1="57" y1="278.86" x2="677" y2="278.86" style="stroke-width: 0.5;stroke: rgb(255,255,255);stroke-opacity: 1.0;stroke-linejoin: bevel;stroke-dasharray: 2.0, 2.0;shape-rendering:crispEdges;" clip-path="url(#_506311309284191clip-2)"/><line x1="57" y1="257.15" x2="677" y2="257.15" style="stroke-width: 0.5;stroke: rgb(255,255,255);stroke-opacity: 1.0;stroke-linejoin: bevel;stroke-dasharray: 2.0, 2.0;shape-rendering:crispEdges;" clip-path="url(#_506311309284191clip-2)"/><line x1="57" y1="235.44" x2="677" y2="235.44" style="stroke-width: 0.5;stroke: rgb(255,255,255);stroke-opacity: 1.0;stroke-linejoin: bevel;stroke-dasharray: 2.0, 2.0;shape-rendering:crispEdges;" clip-path="url(#_506311309284191clip-2)"/><line x1="57" y1="213.72" x2="677" y2="213.72" style="stroke-width: 0.5;stroke: rgb(255,255,255);stroke-opacity: 1.0;stroke-linejoin: bevel;stroke-dasharray: 2.0, 2.0;shape-rendering:crispEdges;" clip-path="url(#_506311309284191clip-2)"/><line x1="57" y1="192.01" x2="677" y2="192.01" style="stroke-width: 0.5;stroke: rgb(255,255,255);stroke-opacity: 1.0;stroke-linejoin: bevel;stroke-dasharray: 2.0, 2.0;shape-rendering:crispEdges;" clip-path="url(#_506311309284191clip-2)"/><line x1="57" y1="170.3" x2="677" y2="170.3" style="stroke-width: 0.5;stroke: rgb(255,255,255);stroke-opacity: 1.0;stroke-linejoin: bevel;stroke-dasharray: 2.0, 2.0;shape-rendering:crispEdges;" clip-path="url(#_506311309284191clip-2)"/><line x1="57" y1="148.59" x2="677" y2="148.59" style="stroke-width: 0.5;stroke: rgb(255,255,255);stroke-opacity: 1.0;stroke-linejoin: bevel;stroke-dasharray: 2.0, 2.0;shape-rendering:crispEdges;" clip-path="url(#_506311309284191clip-2)"/><line x1="57" y1="126.87" x2="677" y2="126.87" style="stroke-width: 0.5;stroke: rgb(255,255,255);stroke-opacity: 1.0;stroke-linejoin: bevel;stroke-dasharray: 2.0, 2.0;shape-rendering:crispEdges;" clip-path="url(#_506311309284191clip-2)"/><line x1="57" y1="105.16" x2="677" y2="105.16" style="stroke-width: 0.5;stroke: rgb(255,255,255);stroke-opacity: 1.0;stroke-linejoin: bevel;stroke-dasharray: 2.0, 2.0;shape-rendering:crispEdges;" clip-path="url(#_506311309284191clip-2)"/><line x1="57" y1="83.45" x2="677" y2="83.45" style="stroke-width: 0.5;stroke: rgb(255,255,255);stroke-opacity: 1.0;stroke-linejoin: bevel;stroke-dasharray: 2.0, 2.0;shape-rendering:crispEdges;" clip-path="url(#_506311309284191clip-2)"/><rect x="88" y="284.29" width="66.13" height="59.71" style="fill: rgb(255,85,85); fill-opacity: 1.0" clip-path="url(#_506311309284191clip-2)"/><rect x="166.53" y="232.18" width="66.13" height="111.82" style="fill: rgb(85,85,255); fill-opacity: 1.0" clip-path="url(#_506311309284191clip-2)"/><rect x="294.67" y="252.81" width="66.13" height="91.19" style="fill: rgb(255,85,85); fill-opacity: 1.0" clip-path="url(#_506311309284191clip-2)"/><rect x="373.2" y="125.79" width="66.13" height="218.21" style="fill: rgb(85,85,255); fill-opacity: 1.0" clip-path="url(#_506311309284191clip-2)"/><rect x="501.33" y="205.04" width="66.13" height="138.96" style="fill: rgb(255,85,85); fill-opacity: 1.0" clip-path="url(#_506311309284191clip-2)"/><rect x="579.87" y="80.19" width="66.13" height="263.81" style="fill: rgb(85,85,255); fill-opacity: 1.0" clip-path="url(#_506311309284191clip-2)"/><rect x="57" y="67" width="620" height="277" style="stroke-width: 0.5;stroke: rgb(0,0,0);stroke-opacity: 1.0;stroke-linecap: round;stroke-linejoin: round;shape-rendering:crispEdges;; fill: none" clip-path="url(#_506311309284191clip-0)"/></svg>
