<!DOCTYPE svg PUBLIC "-//W3C//DTD SVG 1.1//EN" "http://www.w3.org/Graphics/SVG/1.1/DTD/svg11.dtd">
<svg xmlns="http://www.w3.org/2000/svg" xmlns:xlink="http://www.w3.org/1999/xlink" xmlns:jfreesvg="http://www.jfree.org/jfreesvg/svg" width="689" height="436" text-rendering="auto" shape-rendering="auto">
<defs><linearGradient id="_506974024491077gp5" x1="354.5" y1="0" x2="661" y2="0" gradientUnits="userSpaceOnUse"><stop offset="0%" stop-color="rgb(157,222,177)"/><stop offset="100%" stop-color="rgb(157,222,177)" stop-opacity="0.501961"/></linearGradient>
<linearGradient id="_506974024491077gp2" x1="354.5" y1="0" x2="661" y2="0" gradientUnits="userSpaceOnUse"><stop offset="0%" stop-color="rgb(142,220,220)"/><stop offset="100%" stop-color="rgb(142,220,220)" stop-opacity="0.501961"/></linearGradient>
<linearGradient id="_506974024491077gp3" x1="354.5" y1="0" x2="661" y2="0" gradientUnits="userSpaceOnUse"><stop offset="0%" stop-color="rgb(228,186,115)"/><stop offset="100%" stop-color="rgb(228,186,115)" stop-opacity="0.501961"/></linearGradient>
<linearGradient id="_506974024491077gp0" x1="28" y1="0" x2="334.5" y2="0" gradientUnits="userSpaceOnUse"><stop offset="0%" stop-color="rgb(232,177,165)"/><stop offset="100%" stop-color="rgb(232,177,165)" stop-opacity="0.501961"/></linearGradient>
<linearGradient id="_506974024491077gp4" x1="354.5" y1="0" x2="661" y2="0" gradientUnits="userSpaceOnUse"><stop offset="0%" stop-color="rgb(187,200,230)"/><stop offset="100%" stop-color="rgb(187,200,230)" stop-opacity="0.501961"/></linearGradient>
<linearGradient id="_506974024491077gp1" x1="28" y1="0" x2="334.5" y2="0" gradientUnits="userSpaceOnUse"><stop offset="0%" stop-color="rgb(207,235,142)"/><stop offset="100%" stop-color="rgb(207,235,142)" stop-opacity="0.501961"/></linearGradient>
<clipPath id="_506974024491077clip-0"><path d="M 0 0 L 689 0 L 689 436 L 0 436 L 0 0 Z "/></clipPath>
</defs>
<rect x="0" y="0" width="689" height="436" style="fill: rgb(255,255,255); fill-opacity: 1.0" clip-path="url(#_506974024491077clip-0)"/><g ><text x="201.5" y="18.4" style="fill: rgb(0,0,0); fill-opacity: 1.0; font-family: sans-serif; font-size: 18px; font-weight: bold;" clip-path="url(#_506974024491077clip-0)">Selected NZ Exports Sept 2020</text></g><g ><text x="159.5" y="36.6" style="fill: rgb(0,0,0); fill-opacity: 1.0; font-family: sans-serif; font-size: 12px; font-weight: bold;" clip-path="url(#_506974024491077clip-0)">Source: https://statisticsnz.shinyapps.io/trade_dashboard/</text></g><rect x="8" y="45" width="673" height="387" style="fill: rgb(0,0,0); fill-opacity: 1.0" clip-path="url(#_506974024491077clip-0)"/><rect x="8" y="45" width="20" height="292.14" style="fill: rgb(232,177,165); fill-opacity: 1.0" clip-path="url(#_506974024491077clip-0)"/><g style="fill: url(#_506974024491077gp0); fill-opacity: 0.75; stroke: none" clip-path="url(#_506974024491077clip-0)"><path d="M 31.36 45 C 181.25 45 181.25 45 331.14 45 L 331.14 125.67 C 181.25 125.67 181.25 125.67 31.36 125.67 Z "/></g><g style="fill: url(#_506974024491077gp0); fill-opacity: 0.75; stroke: none" clip-path="url(#_506974024491077clip-0)"><path d="M 31.36 125.67 C 181.25 125.67 181.25 156.95 331.14 156.95 L 331.14 287.37 C 181.25 287.37 181.25 256.09 31.36 256.09 Z "/></g><g style="fill: url(#_506974024491077gp0); fill-opacity: 0.75; stroke: none" clip-path="url(#_506974024491077clip-0)"><path d="M 31.36 256.09 C 181.25 256.09 181.25 306.25 331.14 306.25 L 331.14 373.37 C 181.25 373.37 181.25 323.2 31.36 323.2 Z "/></g><g style="fill: url(#_506974024491077gp0); fill-opacity: 0.75; stroke: none" clip-path="url(#_506974024491077clip-0)"><path d="M 31.36 323.2 C 181.25 323.2 181.25 399.62 331.14 399.62 L 331.14 413.56 C 181.25 413.56 181.25 337.14 31.36 337.14 Z "/></g><rect x="8" y="341.01" width="20" height="71.64" style="fill: rgb(207,235,142); fill-opacity: 1.0" clip-path="url(#_506974024491077clip-0)"/><g style="fill: url(#_506974024491077gp1); fill-opacity: 0.75; stroke: none" clip-path="url(#_506974024491077clip-0)"><path d="M 31.36 341.01 C 181.25 341.01 181.25 125.67 331.14 125.67 L 331.14 153.08 C 181.25 153.08 181.25 368.42 31.36 368.42 Z "/></g><g style="fill: url(#_506974024491077gp1); fill-opacity: 0.75; stroke: none" clip-path="url(#_506974024491077clip-0)"><path d="M 31.36 368.42 C 181.25 368.42 181.25 287.37 331.14 287.37 L 331.14 302.38 C 181.25 302.38 181.25 383.43 31.36 383.43 Z "/></g><g style="fill: url(#_506974024491077gp1); fill-opacity: 0.75; stroke: none" clip-path="url(#_506974024491077clip-0)"><path d="M 31.36 383.43 C 181.25 383.43 181.25 373.37 331.14 373.37 L 331.14 395.75 C 181.25 395.75 181.25 405.82 31.36 405.82 Z "/></g><g style="fill: url(#_506974024491077gp1); fill-opacity: 0.75; stroke: none" clip-path="url(#_506974024491077clip-0)"><path d="M 31.36 405.82 C 181.25 405.82 181.25 413.56 331.14 413.56 L 331.14 420.39 C 181.25 420.39 181.25 412.65 31.36 412.65 Z "/></g><rect x="334.5" y="45" width="20" height="108.08" style="fill: rgb(142,220,220); fill-opacity: 1.0" clip-path="url(#_506974024491077clip-0)"/><g style="fill: url(#_506974024491077gp2); fill-opacity: 0.75; stroke: none" clip-path="url(#_506974024491077clip-0)"><path d="M 357.86 45 C 507.75 45 507.75 45 657.64 45 L 657.64 51.33 C 507.75 51.33 507.75 51.33 357.86 51.33 Z "/></g><g style="fill: url(#_506974024491077gp2); fill-opacity: 0.75; stroke: none" clip-path="url(#_506974024491077clip-0)"><path d="M 357.86 51.33 C 507.75 51.33 507.75 92.1 657.64 92.1 L 657.64 99.7 C 507.75 99.7 507.75 58.94 357.86 58.94 Z "/></g><g style="fill: url(#_506974024491077gp2); fill-opacity: 0.75; stroke: none" clip-path="url(#_506974024491077clip-0)"><path d="M 357.86 58.94 C 507.75 58.94 507.75 122.46 657.64 122.46 L 657.64 128.99 C 507.75 128.99 507.75 65.46 357.86 65.46 Z "/></g><g style="fill: url(#_506974024491077gp2); fill-opacity: 0.75; stroke: none" clip-path="url(#_506974024491077clip-0)"><path d="M 357.86 65.46 C 507.75 65.46 507.75 144.8 657.64 144.8 L 657.64 232.41 C 507.75 232.41 507.75 153.08 357.86 153.08 Z "/></g><rect x="334.5" y="156.95" width="20" height="145.44" style="fill: rgb(228,186,115); fill-opacity: 1.0" clip-path="url(#_506974024491077clip-0)"/><g style="fill: url(#_506974024491077gp3); fill-opacity: 0.75; stroke: none" clip-path="url(#_506974024491077clip-0)"><path d="M 357.86 156.95 C 507.75 156.95 507.75 51.33 657.64 51.33 L 657.64 83.89 C 507.75 83.89 507.75 189.51 357.86 189.51 Z "/></g><g style="fill: url(#_506974024491077gp3); fill-opacity: 0.75; stroke: none" clip-path="url(#_506974024491077clip-0)"><path d="M 357.86 189.51 C 507.75 189.51 507.75 99.7 657.64 99.7 L 657.64 112.87 C 507.75 112.87 507.75 202.68 357.86 202.68 Z "/></g><g style="fill: url(#_506974024491077gp3); fill-opacity: 0.75; stroke: none" clip-path="url(#_506974024491077clip-0)"><path d="M 357.86 202.68 C 507.75 202.68 507.75 232.41 657.64 232.41 L 657.64 275.88 C 507.75 275.88 507.75 246.14 357.86 246.14 Z "/></g><g style="fill: url(#_506974024491077gp3); fill-opacity: 0.75; stroke: none" clip-path="url(#_506974024491077clip-0)"><path d="M 357.86 246.14 C 507.75 246.14 507.75 347.51 657.64 347.51 L 657.64 365.29 C 507.75 365.29 507.75 263.91 357.86 263.91 Z "/></g><g style="fill: url(#_506974024491077gp3); fill-opacity: 0.75; stroke: none" clip-path="url(#_506974024491077clip-0)"><path d="M 357.86 263.91 C 507.75 263.91 507.75 385.97 657.64 385.97 L 657.64 397.34 C 507.75 397.34 507.75 275.28 357.86 275.28 Z "/></g><g style="fill: url(#_506974024491077gp3); fill-opacity: 0.75; stroke: none" clip-path="url(#_506974024491077clip-0)"><path d="M 357.86 275.28 C 507.75 275.28 507.75 401.71 657.64 401.71 L 657.64 428.81 C 507.75 428.81 507.75 302.38 357.86 302.38 Z "/></g><rect x="334.5" y="306.25" width="20" height="89.5" style="fill: rgb(187,200,230); fill-opacity: 1.0" clip-path="url(#_506974024491077clip-0)"/><g style="fill: url(#_506974024491077gp4); fill-opacity: 0.75; stroke: none" clip-path="url(#_506974024491077clip-0)"><path d="M 357.86 306.25 C 507.75 306.25 507.75 83.89 657.64 83.89 L 657.64 87.54 C 507.75 87.54 507.75 309.9 357.86 309.9 Z "/></g><g style="fill: url(#_506974024491077gp4); fill-opacity: 0.75; stroke: none" clip-path="url(#_506974024491077clip-0)"><path d="M 357.86 309.9 C 507.75 309.9 507.75 112.87 657.64 112.87 L 657.64 116.33 C 507.75 116.33 507.75 313.36 357.86 313.36 Z "/></g><g style="fill: url(#_506974024491077gp4); fill-opacity: 0.75; stroke: none" clip-path="url(#_506974024491077clip-0)"><path d="M 357.86 313.36 C 507.75 313.36 507.75 128.99 657.64 128.99 L 657.64 135.02 C 507.75 135.02 507.75 319.38 357.86 319.38 Z "/></g><g style="fill: url(#_506974024491077gp4); fill-opacity: 0.75; stroke: none" clip-path="url(#_506974024491077clip-0)"><path d="M 357.86 319.38 C 507.75 319.38 507.75 275.88 657.64 275.88 L 657.64 334.96 C 507.75 334.96 507.75 378.47 357.86 378.47 Z "/></g><g style="fill: url(#_506974024491077gp4); fill-opacity: 0.75; stroke: none" clip-path="url(#_506974024491077clip-0)"><path d="M 357.86 378.47 C 507.75 378.47 507.75 365.29 657.64 365.29 L 657.64 379.38 C 507.75 379.38 507.75 392.56 357.86 392.56 Z "/></g><g style="fill: url(#_506974024491077gp4); fill-opacity: 0.75; stroke: none" clip-path="url(#_506974024491077clip-0)"><path d="M 357.86 392.56 C 507.75 392.56 507.75 428.81 657.64 428.81 L 657.64 432 C 507.75 432 507.75 395.75 357.86 395.75 Z "/></g><rect x="334.5" y="399.62" width="20" height="20.77" style="fill: rgb(157,222,177); fill-opacity: 1.0" clip-path="url(#_506974024491077clip-0)"/><g style="fill: url(#_506974024491077gp5); fill-opacity: 0.75; stroke: none" clip-path="url(#_506974024491077clip-0)"><path d="M 357.86 399.62 C 507.75 399.62 507.75 87.54 657.64 87.54 L 657.64 88.23 C 507.75 88.23 507.75 400.31 357.86 400.31 Z "/></g><g style="fill: url(#_506974024491077gp5); fill-opacity: 0.75; stroke: none" clip-path="url(#_506974024491077clip-0)"><path d="M 357.86 400.31 C 507.75 400.31 507.75 116.33 657.64 116.33 L 657.64 118.59 C 507.75 118.59 507.75 402.58 357.86 402.58 Z "/></g><g style="fill: url(#_506974024491077gp5); fill-opacity: 0.75; stroke: none" clip-path="url(#_506974024491077clip-0)"><path d="M 357.86 402.58 C 507.75 402.58 507.75 135.02 657.64 135.02 L 657.64 140.93 C 507.75 140.93 507.75 408.49 357.86 408.49 Z "/></g><g style="fill: url(#_506974024491077gp5); fill-opacity: 0.75; stroke: none" clip-path="url(#_506974024491077clip-0)"><path d="M 357.86 408.49 C 507.75 408.49 507.75 334.96 657.64 334.96 L 657.64 343.64 C 507.75 343.64 507.75 417.16 357.86 417.16 Z "/></g><g style="fill: url(#_506974024491077gp5); fill-opacity: 0.75; stroke: none" clip-path="url(#_506974024491077clip-0)"><path d="M 357.86 417.16 C 507.75 417.16 507.75 379.38 657.64 379.38 L 657.64 382.1 C 507.75 382.1 507.75 419.89 357.86 419.89 Z "/></g><g style="fill: url(#_506974024491077gp5); fill-opacity: 0.75; stroke: none" clip-path="url(#_506974024491077clip-0)"><path d="M 357.86 419.89 C 507.75 419.89 507.75 397.34 657.64 397.34 L 657.64 397.84 C 507.75 397.84 507.75 420.39 357.86 420.39 Z "/></g><rect x="661" y="45" width="20" height="43.23" style="fill: rgb(234,183,210); fill-opacity: 1.0" clip-path="url(#_506974024491077clip-0)"/><rect x="661" y="92.1" width="20" height="26.49" style="fill: rgb(213,206,169); fill-opacity: 1.0" clip-path="url(#_506974024491077clip-0)"/><rect x="661" y="122.46" width="20" height="18.47" style="fill: rgb(202,214,205); fill-opacity: 1.0" clip-path="url(#_506974024491077clip-0)"/><rect x="661" y="144.8" width="20" height="198.84" style="fill: rgb(195,204,133); fill-opacity: 1.0" clip-path="url(#_506974024491077clip-0)"/><rect x="661" y="347.51" width="20" height="34.59" style="fill: rgb(232,177,165); fill-opacity: 1.0" clip-path="url(#_506974024491077clip-0)"/><rect x="661" y="385.97" width="20" height="11.86" style="fill: rgb(207,235,142); fill-opacity: 1.0" clip-path="url(#_506974024491077clip-0)"/><rect x="661" y="401.71" width="20" height="30.29" style="fill: rgb(142,220,220); fill-opacity: 1.0" clip-path="url(#_506974024491077clip-0)"/><g ><text x="592.64" y="136.67" style="fill: rgb(255,255,255); fill-opacity: 1.0; font-family: sans-serif; font-size: 12px; font-weight: bold;" clip-path="url(#_506974024491077clip-0)">Beverages</text></g><g ><text x="359.86" y="355.97" style="fill: rgb(255,255,255); fill-opacity: 1.0; font-family: sans-serif; font-size: 12px; font-weight: bold;" clip-path="url(#_506974024491077clip-0)">USA</text></g><g ><text x="622.64" y="71.58" style="fill: rgb(255,255,255); fill-opacity: 1.0; font-family: sans-serif; font-size: 12px; font-weight: bold;" clip-path="url(#_506974024491077clip-0)">Dairy</text></g><g ><text x="617.64" y="110.32" style="fill: rgb(255,255,255); fill-opacity: 1.0; font-family: sans-serif; font-size: 12px; font-weight: bold;" clip-path="url(#_506974024491077clip-0)">Travel</text></g><g ><text x="625.64" y="369.78" style="fill: rgb(255,255,255); fill-opacity: 1.0; font-family: sans-serif; font-size: 12px; font-weight: bold;" clip-path="url(#_506974024491077clip-0)">Meat</text></g><g ><text x="33.37" y="381.8" style="fill: rgb(255,255,255); fill-opacity: 1.0; font-family: sans-serif; font-size: 12px; font-weight: bold;" clip-path="url(#_506974024491077clip-0)">Services</text></g><g ><text x="576.64" y="249.19" style="fill: rgb(255,255,255); fill-opacity: 1.0; font-family: sans-serif; font-size: 12px; font-weight: bold;" clip-path="url(#_506974024491077clip-0)">Other Goods</text></g><g ><text x="359.86" y="414.97" style="fill: rgb(255,255,255); fill-opacity: 1.0; font-family: sans-serif; font-size: 12px; font-weight: bold;" clip-path="url(#_506974024491077clip-0)">United Kingdom</text></g><g ><text x="620.64" y="421.82" style="fill: rgb(255,255,255); fill-opacity: 1.0; font-family: sans-serif; font-size: 12px; font-weight: bold;" clip-path="url(#_506974024491077clip-0)">Wood</text></g><g ><text x="359.86" y="234.63" style="fill: rgb(255,255,255); fill-opacity: 1.0; font-family: sans-serif; font-size: 12px; font-weight: bold;" clip-path="url(#_506974024491077clip-0)">China</text></g><g ><text x="359.86" y="104.01" style="fill: rgb(255,255,255); fill-opacity: 1.0; font-family: sans-serif; font-size: 12px; font-weight: bold;" clip-path="url(#_506974024491077clip-0)">Australia</text></g><g ><text x="580.64" y="396.87" style="fill: rgb(255,255,255); fill-opacity: 1.0; font-family: sans-serif; font-size: 12px; font-weight: bold;" clip-path="url(#_506974024491077clip-0)">Fruit &amp; Nuts</text></g><g ><text x="33.37" y="196.04" style="fill: rgb(255,255,255); fill-opacity: 1.0; font-family: sans-serif; font-size: 12px; font-weight: bold;" clip-path="url(#_506974024491077clip-0)">Goods</text></g></svg>
