<!DOCTYPE svg PUBLIC "-//W3C//DTD SVG 1.1//EN" "http://www.w3.org/Graphics/SVG/1.1/DTD/svg11.dtd">
<svg xmlns="http://www.w3.org/2000/svg" xmlns:xlink="http://www.w3.org/1999/xlink" xmlns:jfreesvg="http://www.jfree.org/jfreesvg/svg" width="689" height="436" text-rendering="auto" shape-rendering="auto">
<defs><clipPath id="_506357858079241clip-0"><path d="M 0 0 L 689 0 L 689 436 L 0 436 L 0 0 Z "/></clipPath>
<clipPath id="_506357858079241clip-1"><path d="M 225.5 172.5 L 225.5 861.5 L -210.5 861.5 L -210.5 172.5 L 225.5 172.5 Z "/></clipPath>
<clipPath id="_506357858079241clip-2"><path d="M 68 35 L 68 363 L 677 363 L 677 35 Z "/></clipPath>
</defs>
<rect x="0" y="0" width="689" height="436" style="fill: rgb(255,255,255); fill-opacity: 1.0" clip-path="url(#_506357858079241clip-0)"/><g ><text x="204" y="21.01" style="fill: rgb(0,0,0); fill-opacity: 1.0; font-family: Tahoma; font-size: 20px; font-weight: bold;" clip-path="url(#_506357858079241clip-0)">Normal Distribution Demo 2</text></g><rect x="266.5" y="414" width="156" height="21" style="fill: rgb(255,255,255); fill-opacity: 1.0" clip-path="url(#_506357858079241clip-0)"/><g style="stroke-width: 1.5;stroke: rgb(255,85,85);stroke-opacity: 1.0;stroke-linecap: square;shape-rendering:geometricPrecision;; fill: none" clip-path="url(#_506357858079241clip-0)"><path d="M 269.5 424.5 L 283.5 424.5"/></g><g ><text x="287.5" y="429.01" style="fill: rgb(64,64,64); fill-opacity: 1.0; font-family: Tahoma; font-size: 12px;" clip-path="url(#_506357858079241clip-0)">N1</text></g><g style="stroke-width: 2.0;stroke: rgb(85,85,255);stroke-opacity: 1.0;stroke-linecap: round;stroke-linejoin: round;stroke-dasharray: 6.0, 4.0;shape-rendering:geometricPrecision;; fill: none" clip-path="url(#_506357858079241clip-0)"><path d="M 308.5 424.5 L 322.5 424.5"/></g><g ><text x="326.5" y="429.01" style="fill: rgb(64,64,64); fill-opacity: 1.0; font-family: Tahoma; font-size: 12px;" clip-path="url(#_506357858079241clip-0)">N2</text></g><g style="stroke-width: 2.0;stroke: rgb(85,255,85);stroke-opacity: 1.0;stroke-linecap: round;stroke-linejoin: round;stroke-dasharray: 6.0, 4.0, 3.0, 3.0;shape-rendering:geometricPrecision;; fill: none" clip-path="url(#_506357858079241clip-0)"><path d="M 347.5 424.5 L 361.5 424.5"/></g><g ><text x="365.5" y="429.01" style="fill: rgb(64,64,64); fill-opacity: 1.0; font-family: Tahoma; font-size: 12px;" clip-path="url(#_506357858079241clip-0)">N3</text></g><g style="stroke-width: 2.0;stroke: rgb(255,255,85);stroke-opacity: 1.0;stroke-linecap: round;stroke-linejoin: round;stroke-dasharray: 4.0, 4.0;shape-rendering:geometricPrecision;; fill: none" clip-path="url(#_506357858079241clip-0)"><path d="M 386.5 424.5 L 400.5 424.5"/></g><g ><text x="404.5" y="429.01" style="fill: rgb(64,64,64); fill-opacity: 1.0; font-family: Tahoma; font-size: 12px;" clip-path="url(#_506357858079241clip-0)">N4</text></g><rect x="68" y="35" width="609" height="328" style="fill: rgb(192,192,192); fill-opacity: 1.0" clip-path="url(#_506357858079241clip-0)"/><line x1="68" y1="367" x2="677" y2="367" style="stroke-width: 0.5;stroke: rgb(128,128,128);stroke-opacity: 1.0;stroke-linecap: square;shape-rendering:crispEdges;" clip-path="url(#_506357858079241clip-0)"/><g ><text x="68.47" y="383.52" style="fill: rgb(64,64,64); fill-opacity: 1.0; font-family: Tahoma; font-size: 12px;" clip-path="url(#_506357858079241clip-0)">-5</text></g><line x1="73.97" y1="369" x2="73.97" y2="367" style="stroke-width: 0.5;stroke: rgb(128,128,128);stroke-opacity: 1.0;stroke-linecap: square;shape-rendering:crispEdges;" clip-path="url(#_506357858079241clip-0)"/><g ><text x="128.18" y="383.52" style="fill: rgb(64,64,64); fill-opacity: 1.0; font-family: Tahoma; font-size: 12px;" clip-path="url(#_506357858079241clip-0)">-4</text></g><line x1="133.68" y1="369" x2="133.68" y2="367" style="stroke-width: 0.5;stroke: rgb(128,128,128);stroke-opacity: 1.0;stroke-linecap: square;shape-rendering:crispEdges;" clip-path="url(#_506357858079241clip-0)"/><g ><text x="187.88" y="383.52" style="fill: rgb(64,64,64); fill-opacity: 1.0; font-family: Tahoma; font-size: 12px;" clip-path="url(#_506357858079241clip-0)">-3</text></g><line x1="193.38" y1="369" x2="193.38" y2="367" style="stroke-width: 0.5;stroke: rgb(128,128,128);stroke-opacity: 1.0;stroke-linecap: square;shape-rendering:crispEdges;" clip-path="url(#_506357858079241clip-0)"/><g ><text x="247.59" y="383.52" style="fill: rgb(64,64,64); fill-opacity: 1.0; font-family: Tahoma; font-size: 12px;" clip-path="url(#_506357858079241clip-0)">-2</text></g><line x1="253.09" y1="369" x2="253.09" y2="367" style="stroke-width: 0.5;stroke: rgb(128,128,128);stroke-opacity: 1.0;stroke-linecap: square;shape-rendering:crispEdges;" clip-path="url(#_506357858079241clip-0)"/><g ><text x="307.29" y="383.52" style="fill: rgb(64,64,64); fill-opacity: 1.0; font-family: Tahoma; font-size: 12px;" clip-path="url(#_506357858079241clip-0)">-1</text></g><line x1="312.79" y1="369" x2="312.79" y2="367" style="stroke-width: 0.5;stroke: rgb(128,128,128);stroke-opacity: 1.0;stroke-linecap: square;shape-rendering:crispEdges;" clip-path="url(#_506357858079241clip-0)"/><g ><text x="369" y="383.52" style="fill: rgb(64,64,64); fill-opacity: 1.0; font-family: Tahoma; font-size: 12px;" clip-path="url(#_506357858079241clip-0)">0</text></g><line x1="372.5" y1="369" x2="372.5" y2="367" style="stroke-width: 0.5;stroke: rgb(128,128,128);stroke-opacity: 1.0;stroke-linecap: square;shape-rendering:crispEdges;" clip-path="url(#_506357858079241clip-0)"/><g ><text x="428.71" y="383.52" style="fill: rgb(64,64,64); fill-opacity: 1.0; font-family: Tahoma; font-size: 12px;" clip-path="url(#_506357858079241clip-0)">1</text></g><line x1="432.21" y1="369" x2="432.21" y2="367" style="stroke-width: 0.5;stroke: rgb(128,128,128);stroke-opacity: 1.0;stroke-linecap: square;shape-rendering:crispEdges;" clip-path="url(#_506357858079241clip-0)"/><g ><text x="488.41" y="383.52" style="fill: rgb(64,64,64); fill-opacity: 1.0; font-family: Tahoma; font-size: 12px;" clip-path="url(#_506357858079241clip-0)">2</text></g><line x1="491.91" y1="369" x2="491.91" y2="367" style="stroke-width: 0.5;stroke: rgb(128,128,128);stroke-opacity: 1.0;stroke-linecap: square;shape-rendering:crispEdges;" clip-path="url(#_506357858079241clip-0)"/><g ><text x="548.12" y="383.52" style="fill: rgb(64,64,64); fill-opacity: 1.0; font-family: Tahoma; font-size: 12px;" clip-path="url(#_506357858079241clip-0)">3</text></g><line x1="551.62" y1="369" x2="551.62" y2="367" style="stroke-width: 0.5;stroke: rgb(128,128,128);stroke-opacity: 1.0;stroke-linecap: square;shape-rendering:crispEdges;" clip-path="url(#_506357858079241clip-0)"/><g ><text x="607.82" y="383.52" style="fill: rgb(64,64,64); fill-opacity: 1.0; font-family: Tahoma; font-size: 12px;" clip-path="url(#_506357858079241clip-0)">4</text></g><line x1="611.32" y1="369" x2="611.32" y2="367" style="stroke-width: 0.5;stroke: rgb(128,128,128);stroke-opacity: 1.0;stroke-linecap: square;shape-rendering:crispEdges;" clip-path="url(#_506357858079241clip-0)"/><g ><text x="667.53" y="383.52" style="fill: rgb(64,64,64); fill-opacity: 1.0; font-family: Tahoma; font-size: 12px;" clip-path="url(#_506357858079241clip-0)">5</text></g><line x1="671.03" y1="369" x2="671.03" y2="367" style="stroke-width: 0.5;stroke: rgb(128,128,128);stroke-opacity: 1.0;stroke-linecap: square;shape-rendering:crispEdges;" clip-path="url(#_506357858079241clip-0)"/><g ><text x="367.5" y="402.59" style="fill: rgb(64,64,64); fill-opacity: 1.0; font-family: Tahoma; font-size: 14px; font-weight: bold;" clip-path="url(#_506357858079241clip-0)">X</text></g><line x1="64" y1="35" x2="64" y2="363" style="stroke-width: 0.5;stroke: rgb(128,128,128);stroke-opacity: 1.0;stroke-linecap: square;shape-rendering:crispEdges;" clip-path="url(#_506357858079241clip-0)"/><g ><text x="40" y="368.02" style="fill: rgb(64,64,64); fill-opacity: 1.0; font-family: Tahoma; font-size: 12px;" clip-path="url(#_506357858079241clip-0)">0.0</text></g><line x1="62" y1="363" x2="64" y2="363" style="stroke-width: 0.5;stroke: rgb(128,128,128);stroke-opacity: 1.0;stroke-linecap: square;shape-rendering:crispEdges;" clip-path="url(#_506357858079241clip-0)"/><g ><text x="40" y="333" style="fill: rgb(64,64,64); fill-opacity: 1.0; font-family: Tahoma; font-size: 12px;" clip-path="url(#_506357858079241clip-0)">0.1</text></g><line x1="62" y1="327.98" x2="64" y2="327.98" style="stroke-width: 0.5;stroke: rgb(128,128,128);stroke-opacity: 1.0;stroke-linecap: square;shape-rendering:crispEdges;" clip-path="url(#_506357858079241clip-0)"/><g ><text x="40" y="297.99" style="fill: rgb(64,64,64); fill-opacity: 1.0; font-family: Tahoma; font-size: 12px;" clip-path="url(#_506357858079241clip-0)">0.2</text></g><line x1="62" y1="292.96" x2="64" y2="292.96" style="stroke-width: 0.5;stroke: rgb(128,128,128);stroke-opacity: 1.0;stroke-linecap: square;shape-rendering:crispEdges;" clip-path="url(#_506357858079241clip-0)"/><g ><text x="40" y="262.97" style="fill: rgb(64,64,64); fill-opacity: 1.0; font-family: Tahoma; font-size: 12px;" clip-path="url(#_506357858079241clip-0)">0.3</text></g><line x1="62" y1="257.95" x2="64" y2="257.95" style="stroke-width: 0.5;stroke: rgb(128,128,128);stroke-opacity: 1.0;stroke-linecap: square;shape-rendering:crispEdges;" clip-path="url(#_506357858079241clip-0)"/><g ><text x="40" y="227.95" style="fill: rgb(64,64,64); fill-opacity: 1.0; font-family: Tahoma; font-size: 12px;" clip-path="url(#_506357858079241clip-0)">0.4</text></g><line x1="62" y1="222.93" x2="64" y2="222.93" style="stroke-width: 0.5;stroke: rgb(128,128,128);stroke-opacity: 1.0;stroke-linecap: square;shape-rendering:crispEdges;" clip-path="url(#_506357858079241clip-0)"/><g ><text x="40" y="192.93" style="fill: rgb(64,64,64); fill-opacity: 1.0; font-family: Tahoma; font-size: 12px;" clip-path="url(#_506357858079241clip-0)">0.5</text></g><line x1="62" y1="187.91" x2="64" y2="187.91" style="stroke-width: 0.5;stroke: rgb(128,128,128);stroke-opacity: 1.0;stroke-linecap: square;shape-rendering:crispEdges;" clip-path="url(#_506357858079241clip-0)"/><g ><text x="40" y="157.91" style="fill: rgb(64,64,64); fill-opacity: 1.0; font-family: Tahoma; font-size: 12px;" clip-path="url(#_506357858079241clip-0)">0.6</text></g><line x1="62" y1="152.89" x2="64" y2="152.89" style="stroke-width: 0.5;stroke: rgb(128,128,128);stroke-opacity: 1.0;stroke-linecap: square;shape-rendering:crispEdges;" clip-path="url(#_506357858079241clip-0)"/><g ><text x="40" y="122.9" style="fill: rgb(64,64,64); fill-opacity: 1.0; font-family: Tahoma; font-size: 12px;" clip-path="url(#_506357858079241clip-0)">0.7</text></g><line x1="62" y1="117.88" x2="64" y2="117.88" style="stroke-width: 0.5;stroke: rgb(128,128,128);stroke-opacity: 1.0;stroke-linecap: square;shape-rendering:crispEdges;" clip-path="url(#_506357858079241clip-0)"/><g ><text x="40" y="87.88" style="fill: rgb(64,64,64); fill-opacity: 1.0; font-family: Tahoma; font-size: 12px;" clip-path="url(#_506357858079241clip-0)">0.8</text></g><line x1="62" y1="82.86" x2="64" y2="82.86" style="stroke-width: 0.5;stroke: rgb(128,128,128);stroke-opacity: 1.0;stroke-linecap: square;shape-rendering:crispEdges;" clip-path="url(#_506357858079241clip-0)"/><g ><text x="40" y="52.86" style="fill: rgb(64,64,64); fill-opacity: 1.0; font-family: Tahoma; font-size: 12px;" clip-path="url(#_506357858079241clip-0)">0.9</text></g><line x1="62" y1="47.84" x2="64" y2="47.84" style="stroke-width: 0.5;stroke: rgb(128,128,128);stroke-opacity: 1.0;stroke-linecap: square;shape-rendering:crispEdges;" clip-path="url(#_506357858079241clip-0)"/><g style="fill: rgb(64,64,64); fill-opacity: 1.0; stroke: none" transform="matrix(0,-1,1,0,-172.5,225.5)" clip-path="url(#_506357858079241clip-1)"><path d="M 31.52 194.43 L 28 200.36 L 28 204.61 L 25.45 204.61 L 25.45 200.49 L 21.87 194.43 L 24.78 194.43 L 26.78 198.07 L 28.7 194.43 Z "/></g><line x1="73.97" y1="35" x2="73.97" y2="363" style="stroke-width: 0.5;stroke: rgb(255,255,255);stroke-opacity: 1.0;stroke-linejoin: bevel;stroke-dasharray: 2.0, 2.0;shape-rendering:crispEdges;" clip-path="url(#_506357858079241clip-2)"/><line x1="133.68" y1="35" x2="133.68" y2="363" style="stroke-width: 0.5;stroke: rgb(255,255,255);stroke-opacity: 1.0;stroke-linejoin: bevel;stroke-dasharray: 2.0, 2.0;shape-rendering:crispEdges;" clip-path="url(#_506357858079241clip-2)"/><line x1="193.38" y1="35" x2="193.38" y2="363" style="stroke-width: 0.5;stroke: rgb(255,255,255);stroke-opacity: 1.0;stroke-linejoin: bevel;stroke-dasharray: 2.0, 2.0;shape-rendering:crispEdges;" clip-path="url(#_506357858079241clip-2)"/><line x1="253.09" y1="35" x2="253.09" y2="363" style="stroke-width: 0.5;stroke: rgb(255,255,255);stroke-opacity: 1.0;stroke-linejoin: bevel;stroke-dasharray: 2.0, 2.0;shape-rendering:crispEdges;" clip-path="url(#_506357858079241clip-2)"/><line x1="312.79" y1="35" x2="312.79" y2="363" style="stroke-width: 0.5;stroke: rgb(255,255,255);stroke-opacity: 1.0;stroke-linejoin: bevel;stroke-dasharray: 2.0, 2.0;shape-rendering:crispEdges;" clip-path="url(#_506357858079241clip-2)"/><line x1="372.5" y1="35" x2="372.5" y2="363" style="stroke-width: 0.5;stroke: rgb(255,255,255);stroke-opacity: 1.0;stroke-linejoin: bevel;stroke-dasharray: 2.0, 2.0;shape-rendering:crispEdges;" clip-path="url(#_506357858079241clip-2)"/><line x1="432.21" y1="35" x2="432.21" y2="363" style="stroke-width: 0.5;stroke: rgb(255,255,255);stroke-opacity: 1.0;stroke-linejoin: bevel;stroke-dasharray: 2.0, 2.0;shape-rendering:crispEdges;" clip-path="url(#_506357858079241clip-2)"/><line x1="491.91" y1="35" x2="491.91" y2="363" style="stroke-width: 0.5;stroke: rgb(255,255,255);stroke-opacity: 1.0;stroke-linejoin: bevel;stroke-dasharray: 2.0, 2.0;shape-rendering:crispEdges;" clip-path="url(#_506357858079241clip-2)"/><line x1="551.62" y1="35" x2="551.62" y2="363" style="stroke-width: 0.5;stroke: rgb(255,255,255);stroke-opacity: 1.0;stroke-linejoin: bevel;stroke-dasharray: 2.0, 2.0;shape-rendering:crispEdges;" clip-path="url(#_506357858079241clip-2)"/><line x1="611.32" y1="35" x2="611.32" y2="363" style="stroke-width: 0.5;stroke: rgb(255,255,255);stroke-opacity: 1.0;stroke-linejoin: bevel;stroke-dasharray: 2.0, 2.0;shape-rendering:crispEdges;" clip-path="url(#_506357858079241clip-2)"/><line x1="671.03" y1="35" x2="671.03" y2="363" style="stroke-width: 0.5;stroke: rgb(255,255,255);stroke-opacity: 1.0;stroke-linejoin: bevel;stroke-dasharray: 2.0, 2.0;shape-rendering:crispEdges;" clip-path="url(#_506357858079241clip-2)"/><line x1="372.5" y1="35" x2="372.5" y2="363" style="stroke-width: 0.5;stroke: rgb(0,0,0);stroke-opacity: 1.0;stroke-linecap: square;shape-rendering:crispEdges;" clip-path="url(#_506357858079241clip-2)"/><line x1="68" y1="327.98" x2="677" y2="327.98" style="stroke-width: 0.5;stroke: rgb(255,255,255);stroke-opacity: 1.0;stroke-linejoin: bevel;stroke-dasharray: 2.0, 2.0;shape-rendering:crispEdges;" clip-path="url(#_506357858079241clip-2)"/><line x1="68" y1="292.96" x2="677" y2="292.96" style="stroke-width: 0.5;stroke: rgb(255,255,255);stroke-opacity: 1.0;stroke-linejoin: bevel;stroke-dasharray: 2.0, 2.0;shape-rendering:crispEdges;" clip-path="url(#_506357858079241clip-2)"/><line x1="68" y1="257.95" x2="677" y2="257.95" style="stroke-width: 0.5;stroke: rgb(255,255,255);stroke-opacity: 1.0;stroke-linejoin: bevel;stroke-dasharray: 2.0, 2.0;shape-rendering:crispEdges;" clip-path="url(#_506357858079241clip-2)"/><line x1="68" y1="222.93" x2="677" y2="222.93" style="stroke-width: 0.5;stroke: rgb(255,255,255);stroke-opacity: 1.0;stroke-linejoin: bevel;stroke-dasharray: 2.0, 2.0;shape-rendering:crispEdges;" clip-path="url(#_506357858079241clip-2)"/><line x1="68" y1="187.91" x2="677" y2="187.91" style="stroke-width: 0.5;stroke: rgb(255,255,255);stroke-opacity: 1.0;stroke-linejoin: bevel;stroke-dasharray: 2.0, 2.0;shape-rendering:crispEdges;" clip-path="url(#_506357858079241clip-2)"/><line x1="68" y1="152.89" x2="677" y2="152.89" style="stroke-width: 0.5;stroke: rgb(255,255,255);stroke-opacity: 1.0;stroke-linejoin: bevel;stroke-dasharray: 2.0, 2.0;shape-rendering:crispEdges;" clip-path="url(#_506357858079241clip-2)"/><line x1="68" y1="117.88" x2="677" y2="117.88" style="stroke-width: 0.5;stroke: rgb(255,255,255);stroke-opacity: 1.0;stroke-linejoin: bevel;stroke-dasharray: 2.0, 2.0;shape-rendering:crispEdges;" clip-path="url(#_506357858079241clip-2)"/><line x1="68" y1="82.86" x2="677" y2="82.86" style="stroke-width: 0.5;stroke: rgb(255,255,255);stroke-opacity: 1.0;stroke-linejoin: bevel;stroke-dasharray: 2.0, 2.0;shape-rendering:crispEdges;" clip-path="url(#_506357858079241clip-2)"/><line x1="68" y1="47.84" x2="677" y2="47.84" style="stroke-width: 0.5;stroke: rgb(255,255,255);stroke-opacity: 1.0;stroke-linejoin: bevel;stroke-dasharray: 2.0, 2.0;shape-rendering:crispEdges;" clip-path="url(#_506357858079241clip-2)"/><line x1="68" y1="363" x2="677" y2="363" style="stroke-width: 0.5;stroke: rgb(0,0,0);stroke-opacity: 1.0;stroke-linecap: square;shape-rendering:crispEdges;" clip-path="url(#_506357858079241clip-2)"/><g style="stroke-width: 2.0;stroke: rgb(255,255,85);stroke-opacity: 1.0;stroke-linecap: round;stroke-linejoin: round;stroke-dasharray: 4.0, 4.0;shape-rendering:geometricPrecision;; fill: none" clip-path="url(#_506357858079241clip-2)"><path d="M 68 362.99 L 73.07 362.98 L 78.15 362.96 L 83.22 362.94 L 88.3 362.9 L 93.38 362.85 L 98.45 362.76 L 103.53 362.63 L 108.6 362.43 L 113.68 362.15 L 118.75 361.75 L 123.82 361.18 L 128.9 360.39 L 133.98 359.31 L 139.05 357.86 L 144.12 355.93 L 149.2 353.43 L 154.27 350.23 L 159.35 346.2 L 164.43 341.22 L 169.5 335.17 L 174.57 327.95 L 179.65 319.48 L 184.73 309.75 L 189.8 298.77 L 194.88 286.64 L 199.95 273.52 L 205.02 259.66 L 210.1 245.35 L 215.18 230.99 L 220.25 217 L 225.32 203.85 L 230.4 192 L 235.48 181.9 L 240.55 173.96 L 245.62 168.5 L 250.7 165.75 L 255.77 165.83 L 260.85 168.74 L 265.92 174.36 L 271 182.44 L 276.08 192.65 L 281.15 204.59 L 286.23 217.81 L 291.3 231.83 L 296.38 246.2 L 301.45 260.49 L 306.52 274.32 L 311.6 287.38 L 316.67 299.45 L 321.75 310.35 L 326.83 320.01 L 331.9 328.41 L 336.98 335.56 L 342.05 341.54 L 347.12 346.47 L 352.2 350.44 L 357.27 353.6 L 362.35 356.06 L 367.42 357.95 L 372.5 359.38 L 377.58 360.44 L 382.65 361.22 L 387.73 361.78 L 392.8 362.17 L 397.88 362.45 L 402.95 362.64 L 408.02 362.76 L 413.1 362.85 L 418.17 362.91 L 423.25 362.94 L 428.33 362.96 L 433.4 362.98 L 438.48 362.99 L 443.55 362.99 L 448.62 363 L 453.7 363 L 458.77 363 L 463.85 363 L 468.92 363 L 474 363 L 479.08 363 L 484.15 363 L 489.23 363 L 494.3 363 L 499.38 363 L 504.45 363 L 509.52 363 L 514.6 363 L 519.67 363 L 524.75 363 L 529.83 363 L 534.9 363 L 539.97 363 L 545.05 363 L 550.12 363 L 555.2 363 L 560.28 363 L 565.35 363 L 570.42 363 L 575.5 363 L 580.58 363 L 585.65 363 L 590.72 363 L 595.8 363 L 600.88 363 L 605.95 363 L 611.03 363 L 616.1 363 L 621.17 363 L 626.25 363 L 631.33 363 L 636.4 363 L 641.47 363 L 646.55 363 L 651.62 363 L 656.7 363 L 661.78 363 L 666.85 363 L 671.92 363 L 677 363"/></g><g style="stroke-width: 2.0;stroke: rgb(85,255,85);stroke-opacity: 1.0;stroke-linecap: round;stroke-linejoin: round;stroke-dasharray: 6.0, 4.0, 3.0, 3.0;shape-rendering:geometricPrecision;; fill: none" clip-path="url(#_506357858079241clip-2)"><path d="M 68 358.36 L 73.07 357.95 L 78.15 357.5 L 83.22 357.03 L 88.3 356.52 L 93.38 355.98 L 98.45 355.4 L 103.53 354.79 L 108.6 354.14 L 113.68 353.46 L 118.75 352.74 L 123.82 351.98 L 128.9 351.18 L 133.98 350.34 L 139.05 349.46 L 144.12 348.54 L 149.2 347.57 L 154.27 346.57 L 159.35 345.53 L 164.43 344.45 L 169.5 343.34 L 174.57 342.18 L 179.65 340.99 L 184.73 339.76 L 189.8 338.51 L 194.88 337.22 L 199.95 335.9 L 205.02 334.55 L 210.1 333.19 L 215.18 331.8 L 220.25 330.39 L 225.32 328.97 L 230.4 327.54 L 235.48 326.1 L 240.55 324.66 L 245.62 323.23 L 250.7 321.79 L 255.77 320.37 L 260.85 318.96 L 265.92 317.57 L 271 316.2 L 276.08 314.87 L 281.15 313.56 L 286.23 312.3 L 291.3 311.07 L 296.38 309.9 L 301.45 308.77 L 306.52 307.7 L 311.6 306.7 L 316.67 305.75 L 321.75 304.88 L 326.83 304.08 L 331.9 303.35 L 336.98 302.7 L 342.05 302.13 L 347.12 301.64 L 352.2 301.24 L 357.27 300.93 L 362.35 300.7 L 367.42 300.57 L 372.5 300.52 L 377.58 300.57 L 382.65 300.7 L 387.73 300.93 L 392.8 301.24 L 397.88 301.64 L 402.95 302.13 L 408.02 302.7 L 413.1 303.35 L 418.17 304.08 L 423.25 304.88 L 428.33 305.75 L 433.4 306.7 L 438.48 307.7 L 443.55 308.77 L 448.62 309.9 L 453.7 311.07 L 458.77 312.3 L 463.85 313.56 L 468.92 314.87 L 474 316.2 L 479.08 317.57 L 484.15 318.96 L 489.23 320.37 L 494.3 321.79 L 499.38 323.23 L 504.45 324.66 L 509.52 326.1 L 514.6 327.54 L 519.67 328.97 L 524.75 330.39 L 529.83 331.8 L 534.9 333.19 L 539.97 334.55 L 545.05 335.9 L 550.12 337.22 L 555.2 338.51 L 560.28 339.76 L 565.35 340.99 L 570.42 342.18 L 575.5 343.34 L 580.58 344.45 L 585.65 345.53 L 590.72 346.57 L 595.8 347.57 L 600.88 348.54 L 605.95 349.46 L 611.03 350.34 L 616.1 351.18 L 621.17 351.98 L 626.25 352.74 L 631.33 353.46 L 636.4 354.14 L 641.47 354.79 L 646.55 355.4 L 651.62 355.98 L 656.7 356.52 L 661.78 357.03 L 666.85 357.5 L 671.92 357.95 L 677 358.36"/></g><g style="stroke-width: 2.0;stroke: rgb(85,85,255);stroke-opacity: 1.0;stroke-linecap: round;stroke-linejoin: round;stroke-dasharray: 6.0, 4.0;shape-rendering:geometricPrecision;; fill: none" clip-path="url(#_506357858079241clip-2)"><path d="M 68 363 L 73.07 363 L 78.15 363 L 83.22 363 L 88.3 363 L 93.38 363 L 98.45 363 L 103.53 363 L 108.6 363 L 113.68 363 L 118.75 363 L 123.82 363 L 128.9 363 L 133.98 363 L 139.05 363 L 144.12 363 L 149.2 363 L 154.27 363 L 159.35 363 L 164.43 363 L 169.5 363 L 174.57 363 L 179.65 363 L 184.73 363 L 189.8 363 L 194.88 363 L 199.95 363 L 205.02 363 L 210.1 363 L 215.18 363 L 220.25 363 L 225.32 363 L 230.4 363 L 235.48 363 L 240.55 363 L 245.62 363 L 250.7 362.99 L 255.77 362.98 L 260.85 362.95 L 265.92 362.89 L 271 362.77 L 276.08 362.54 L 281.15 362.1 L 286.23 361.31 L 291.3 359.93 L 296.38 357.63 L 301.45 353.94 L 306.52 348.24 L 311.6 339.82 L 316.67 327.88 L 321.75 311.69 L 326.83 290.68 L 331.9 264.68 L 336.98 234.08 L 342.05 199.96 L 347.12 164.13 L 352.2 129.02 L 357.27 97.49 L 362.35 72.39 L 367.42 56.21 L 372.5 50.62 L 377.58 56.21 L 382.65 72.39 L 387.73 97.49 L 392.8 129.02 L 397.88 164.13 L 402.95 199.96 L 408.02 234.08 L 413.1 264.68 L 418.17 290.68 L 423.25 311.69 L 428.33 327.88 L 433.4 339.82 L 438.48 348.24 L 443.55 353.94 L 448.62 357.63 L 453.7 359.93 L 458.77 361.31 L 463.85 362.1 L 468.92 362.54 L 474 362.77 L 479.08 362.89 L 484.15 362.95 L 489.23 362.98 L 494.3 362.99 L 499.38 363 L 504.45 363 L 509.52 363 L 514.6 363 L 519.67 363 L 524.75 363 L 529.83 363 L 534.9 363 L 539.97 363 L 545.05 363 L 550.12 363 L 555.2 363 L 560.28 363 L 565.35 363 L 570.42 363 L 575.5 363 L 580.58 363 L 585.65 363 L 590.72 363 L 595.8 363 L 600.88 363 L 605.95 363 L 611.03 363 L 616.1 363 L 621.17 363 L 626.25 363 L 631.33 363 L 636.4 363 L 641.47 363 L 646.55 363 L 651.62 363 L 656.7 363 L 661.78 363 L 666.85 363 L 671.92 363 L 677 363"/></g><g style="stroke-width: 1.5;stroke: rgb(255,85,85);stroke-opacity: 1.0;stroke-linecap: square;shape-rendering:geometricPrecision;; fill: none" clip-path="url(#_506357858079241clip-2)"><path d="M 68 363 L 73.07 363 L 78.15 363 L 83.22 363 L 88.3 363 L 93.38 363 L 98.45 363 L 103.53 362.99 L 108.6 362.99 L 113.68 362.99 L 118.75 362.98 L 123.82 362.98 L 128.9 362.97 L 133.98 362.95 L 139.05 362.93 L 144.12 362.91 L 149.2 362.87 L 154.27 362.82 L 159.35 362.76 L 164.43 362.68 L 169.5 362.57 L 174.57 362.43 L 179.65 362.24 L 184.73 362.01 L 189.8 361.71 L 194.88 361.33 L 199.95 360.85 L 205.02 360.27 L 210.1 359.54 L 215.18 358.66 L 220.25 357.59 L 225.32 356.3 L 230.4 354.77 L 235.48 352.97 L 240.55 350.85 L 245.62 348.39 L 250.7 345.56 L 255.77 342.33 L 260.85 338.69 L 265.92 334.6 L 271 330.07 L 276.08 325.08 L 281.15 319.66 L 286.23 313.82 L 291.3 307.59 L 296.38 301.03 L 301.45 294.18 L 306.52 287.13 L 311.6 279.96 L 316.67 272.77 L 321.75 265.66 L 326.83 258.74 L 331.9 252.14 L 336.98 245.96 L 342.05 240.34 L 347.12 235.36 L 352.2 231.14 L 357.27 227.77 L 362.35 225.3 L 367.42 223.8 L 372.5 223.3 L 377.58 223.8 L 382.65 225.3 L 387.73 227.77 L 392.8 231.14 L 397.88 235.36 L 402.95 240.34 L 408.02 245.96 L 413.1 252.14 L 418.17 258.74 L 423.25 265.66 L 428.33 272.77 L 433.4 279.96 L 438.48 287.13 L 443.55 294.18 L 448.62 301.03 L 453.7 307.59 L 458.77 313.82 L 463.85 319.66 L 468.92 325.08 L 474 330.07 L 479.08 334.6 L 484.15 338.69 L 489.23 342.33 L 494.3 345.56 L 499.38 348.39 L 504.45 350.85 L 509.52 352.97 L 514.6 354.77 L 519.67 356.3 L 524.75 357.59 L 529.83 358.66 L 534.9 359.54 L 539.97 360.27 L 545.05 360.85 L 550.12 361.33 L 555.2 361.71 L 560.28 362.01 L 565.35 362.24 L 570.42 362.43 L 575.5 362.57 L 580.58 362.68 L 585.65 362.76 L 590.72 362.82 L 595.8 362.87 L 600.88 362.91 L 605.95 362.93 L 611.03 362.95 L 616.1 362.97 L 621.17 362.98 L 626.25 362.98 L 631.33 362.99 L 636.4 362.99 L 641.47 362.99 L 646.55 363 L 651.62 363 L 656.7 363 L 661.78 363 L 666.85 363 L 671.92 363 L 677 363"/></g><line x1="231.88" y1="144.29" x2="242.48" y2="154.89" style="stroke-width: 1.0;stroke: rgb(0,0,0);stroke-opacity: 1.0;stroke-linecap: square;shape-rendering:geometricPrecision;" clip-path="url(#_506357858079241clip-2)"/><g style="fill: rgb(0,0,0); fill-opacity: 1.0; stroke: none" clip-path="url(#_506357858079241clip-2)"><path d="M 246.02 158.43 L 244.6 152.77 L 240.36 157.01 Z "/></g><g style="fill: rgb(255,255,0); fill-opacity: 1.0; stroke: none" clip-path="url(#_506357858079241clip-2)"><path d="M 142.05 129.35 L 229.05 129.35 L 229.05 142.35 L 142.05 142.35 L 142.05 129.35 Z "/></g><g ><text x="142.05" y="139.35" style="fill: rgb(0,0,0); fill-opacity: 1.0; font-family: sans-serif; font-size: 10px;" clip-path="url(#_506357858079241clip-2)">μ = -2.0, σ² = 0.5</text></g><line x1="415.93" y1="82.86" x2="400.93" y2="82.86" style="stroke-width: 1.0;stroke: rgb(0,0,0);stroke-opacity: 1.0;stroke-linecap: square;shape-rendering:geometricPrecision;" clip-path="url(#_506357858079241clip-2)"/><g style="fill: rgb(0,0,0); fill-opacity: 1.0; stroke: none" clip-path="url(#_506357858079241clip-2)"><path d="M 395.93 82.86 L 400.93 85.86 L 400.93 79.86 Z "/></g><g style="fill: rgb(0,0,255); fill-opacity: 0.24705882; stroke: none" clip-path="url(#_506357858079241clip-2)"><path d="M 419.93 77.25 L 500.93 77.25 L 500.93 90.25 L 419.93 90.25 L 419.93 77.25 Z "/></g><g ><text x="419.93" y="87.25" style="fill: rgb(0,0,0); fill-opacity: 1.0; font-family: sans-serif; font-size: 10px;" clip-path="url(#_506357858079241clip-2)">μ = 0.0, σ² = 0.2</text></g><line x1="438.49" y1="236.73" x2="427.89" y2="247.34" style="stroke-width: 1.0;stroke: rgb(0,0,0);stroke-opacity: 1.0;stroke-linecap: square;shape-rendering:geometricPrecision;" clip-path="url(#_506357858079241clip-2)"/><g style="fill: rgb(0,0,0); fill-opacity: 1.0; stroke: none" clip-path="url(#_506357858079241clip-2)"><path d="M 424.35 250.88 L 430.01 249.46 L 425.76 245.22 Z "/></g><g style="fill: rgb(255,0,0); fill-opacity: 0.24705882; stroke: none" clip-path="url(#_506357858079241clip-2)"><path d="M 441.32 228.74 L 522.32 228.74 L 522.32 241.74 L 441.32 241.74 L 441.32 228.74 Z "/></g><g ><text x="441.32" y="238.74" style="fill: rgb(0,0,0); fill-opacity: 1.0; font-family: sans-serif; font-size: 10px;" clip-path="url(#_506357858079241clip-2)">μ = 0.0, σ² = 1.0</text></g><line x1="551.62" y1="306.74" x2="551.62" y2="321.74" style="stroke-width: 1.0;stroke: rgb(0,0,0);stroke-opacity: 1.0;stroke-linecap: square;shape-rendering:geometricPrecision;" clip-path="url(#_506357858079241clip-2)"/><g style="fill: rgb(0,0,0); fill-opacity: 1.0; stroke: none" clip-path="url(#_506357858079241clip-2)"><path d="M 551.62 326.74 L 554.62 321.74 L 548.62 321.74 Z "/></g><g style="fill: rgb(0,255,0); fill-opacity: 0.24705882; stroke: none" clip-path="url(#_506357858079241clip-2)"><path d="M 511.12 290.63 L 592.12 290.63 L 592.12 303.63 L 511.12 303.63 L 511.12 290.63 Z "/></g><g ><text x="511.12" y="300.63" style="fill: rgb(0,0,0); fill-opacity: 1.0; font-family: sans-serif; font-size: 10px;" clip-path="url(#_506357858079241clip-2)">μ = 0.0, σ² = 5.0</text></g><rect x="68" y="35" width="609" height="328" style="stroke-width: 0.5;stroke: rgb(0,0,0);stroke-opacity: 1.0;stroke-linecap: round;stroke-linejoin: round;shape-rendering:crispEdges;; fill: none" clip-path="url(#_506357858079241clip-0)"/></svg>
