<!DOCTYPE svg PUBLIC "-//W3C//DTD SVG 1.1//EN" "http://www.w3.org/Graphics/SVG/1.1/DTD/svg11.dtd">
<svg xmlns="http://www.w3.org/2000/svg" xmlns:xlink="http://www.w3.org/1999/xlink" xmlns:jfreesvg="http://www.jfree.org/jfreesvg/svg" width="689" height="436" text-rendering="auto" shape-rendering="auto">
<defs><clipPath id="_506387257841082clip-0"><path d="M 0 0 L 689 0 L 689 436 L 0 436 L 0 0 Z "/></clipPath>
<clipPath id="_506387257841082clip-1"><path d="M 13 62 L 13 406 L 682 406 L 682 62 Z "/></clipPath>
</defs>
<rect x="0" y="0" width="689" height="436" style="fill: rgb(255,255,255); fill-opacity: 1.0" clip-path="url(#_506387257841082clip-0)"/><g ><text x="240.5" y="25.01" style="fill: rgb(0,0,0); fill-opacity: 1.0; font-family: Tahoma; font-size: 20px; font-weight: bold;" clip-path="url(#_506387257841082clip-0)">Cognac Exports 2019</text></g><rect x="239.5" y="412" width="216" height="21" style="fill: rgb(255,255,255); fill-opacity: 1.0" clip-path="url(#_506387257841082clip-0)"/><g style="fill: rgb(175,115,75); fill-opacity: 1.0; stroke: none" clip-path="url(#_506387257841082clip-0)"><path d="M 250.5 422.5 C 250.5 424.71 248.71 426.5 246.5 426.5 C 244.29 426.5 242.5 424.71 242.5 422.5 C 242.5 420.29 244.29 418.5 246.5 418.5 C 248.71 418.5 250.5 420.29 250.5 422.5 Z "/></g><g style="stroke-width: 0.5;stroke: rgb(128,128,128);stroke-opacity: 1.0;stroke-linecap: round;stroke-linejoin: round;shape-rendering:geometricPrecision;; fill: none" clip-path="url(#_506387257841082clip-0)"><path d="M 250.5 422.5 C 250.5 424.71 248.71 426.5 246.5 426.5 C 244.29 426.5 242.5 424.71 242.5 422.5 C 242.5 420.29 244.29 418.5 246.5 418.5 C 248.71 418.5 250.5 420.29 250.5 422.5 Z "/></g><g ><text x="254.5" y="427.01" style="fill: rgb(64,64,64); fill-opacity: 1.0; font-family: Tahoma; font-size: 12px;" clip-path="url(#_506387257841082clip-0)">NAFTA</text></g><g style="fill: rgb(71,70,76); fill-opacity: 1.0; stroke: none" clip-path="url(#_506387257841082clip-0)"><path d="M 303.5 422.5 C 303.5 424.71 301.71 426.5 299.5 426.5 C 297.29 426.5 295.5 424.71 295.5 422.5 C 295.5 420.29 297.29 418.5 299.5 418.5 C 301.71 418.5 303.5 420.29 303.5 422.5 Z "/></g><g style="stroke-width: 0.5;stroke: rgb(128,128,128);stroke-opacity: 1.0;stroke-linecap: round;stroke-linejoin: round;shape-rendering:geometricPrecision;; fill: none" clip-path="url(#_506387257841082clip-0)"><path d="M 303.5 422.5 C 303.5 424.71 301.71 426.5 299.5 426.5 C 297.29 426.5 295.5 424.71 295.5 422.5 C 295.5 420.29 297.29 418.5 299.5 418.5 C 301.71 418.5 303.5 420.29 303.5 422.5 Z "/></g><g ><text x="307.5" y="427.01" style="fill: rgb(64,64,64); fill-opacity: 1.0; font-family: Tahoma; font-size: 12px;" clip-path="url(#_506387257841082clip-0)">Europe</text></g><g style="fill: rgb(161,152,94); fill-opacity: 1.0; stroke: none" clip-path="url(#_506387257841082clip-0)"><path d="M 359.5 422.5 C 359.5 424.71 357.71 426.5 355.5 426.5 C 353.29 426.5 351.5 424.71 351.5 422.5 C 351.5 420.29 353.29 418.5 355.5 418.5 C 357.71 418.5 359.5 420.29 359.5 422.5 Z "/></g><g style="stroke-width: 0.5;stroke: rgb(128,128,128);stroke-opacity: 1.0;stroke-linecap: round;stroke-linejoin: round;shape-rendering:geometricPrecision;; fill: none" clip-path="url(#_506387257841082clip-0)"><path d="M 359.5 422.5 C 359.5 424.71 357.71 426.5 355.5 426.5 C 353.29 426.5 351.5 424.71 351.5 422.5 C 351.5 420.29 353.29 418.5 355.5 418.5 C 357.71 418.5 359.5 420.29 359.5 422.5 Z "/></g><g ><text x="363.5" y="427.01" style="fill: rgb(64,64,64); fill-opacity: 1.0; font-family: Tahoma; font-size: 12px;" clip-path="url(#_506387257841082clip-0)">Far East</text></g><g style="fill: rgb(241,208,158); fill-opacity: 1.0; stroke: none" clip-path="url(#_506387257841082clip-0)"><path d="M 419.5 422.5 C 419.5 424.71 417.71 426.5 415.5 426.5 C 413.29 426.5 411.5 424.71 411.5 422.5 C 411.5 420.29 413.29 418.5 415.5 418.5 C 417.71 418.5 419.5 420.29 419.5 422.5 Z "/></g><g style="stroke-width: 0.5;stroke: rgb(128,128,128);stroke-opacity: 1.0;stroke-linecap: round;stroke-linejoin: round;shape-rendering:geometricPrecision;; fill: none" clip-path="url(#_506387257841082clip-0)"><path d="M 419.5 422.5 C 419.5 424.71 417.71 426.5 415.5 426.5 C 413.29 426.5 411.5 424.71 411.5 422.5 C 411.5 420.29 413.29 418.5 415.5 418.5 C 417.71 418.5 419.5 420.29 419.5 422.5 Z "/></g><g ><text x="423.5" y="427.01" style="fill: rgb(64,64,64); fill-opacity: 1.0; font-family: Tahoma; font-size: 12px;" clip-path="url(#_506387257841082clip-0)">Other</text></g><g ><text x="290" y="43.6" style="fill: rgb(0,0,0); fill-opacity: 1.0; font-family: sans-serif; font-size: 12px; font-weight: bold;" clip-path="url(#_506387257841082clip-0)">Millions of Bottles</text></g><g ><text x="152.5" y="57.33" style="fill: rgb(0,0,0); fill-opacity: 1.0; font-family: Courier New; font-size: 10px;" clip-path="url(#_506387257841082clip-0)">https://www.cognac.fr/en/press/cognac-shipments-and-harvest-2019/</text></g><rect x="13" y="62" width="669" height="344" style="fill: rgb(169,191,191); fill-opacity: 1.0" clip-path="url(#_506387257841082clip-0)"/><rect x="13" y="62" width="669" height="344" style="stroke-width: 0.5;stroke: rgb(0,0,0);stroke-opacity: 1.0;stroke-linecap: round;stroke-linejoin: round;shape-rendering:crispEdges;; fill: none" clip-path="url(#_506387257841082clip-0)"/><g style="fill: rgb(128,128,128); fill-opacity: 1.0; stroke: none" clip-path="url(#_506387257841082clip-1)"><path d="M 351.5 100.74 C 425.25 100.74 485.82 159.03 488.65 232.72 C 491.49 306.42 435.58 369.18 362.05 374.85 L 351.5 238 Z "/></g><g style="fill: rgb(128,128,128); fill-opacity: 1.0; stroke: none" clip-path="url(#_506387257841082clip-1)"><path d="M 362.05 374.85 C 310.71 378.81 261.48 353.7 234.54 309.82 L 351.5 238 Z "/></g><g style="fill: rgb(128,128,128); fill-opacity: 1.0; stroke: none" clip-path="url(#_506387257841082clip-1)"><path d="M 234.54 309.82 C 213.54 275.63 208.56 233.96 220.9 195.78 C 233.24 157.59 261.68 126.73 298.72 111.3 L 351.5 238 Z "/></g><g style="fill: rgb(128,128,128); fill-opacity: 1.0; stroke: none" clip-path="url(#_506387257841082clip-1)"><path d="M 298.72 111.3 C 315.45 104.33 333.38 100.74 351.5 100.74 L 351.5 238 Z "/></g><g style="fill: rgb(175,115,75); fill-opacity: 1.0; stroke: none" clip-path="url(#_506387257841082clip-1)"><path d="M 347.5 96.74 C 421.25 96.74 481.82 155.03 484.65 228.72 C 487.49 302.42 431.58 365.18 358.05 370.85 L 347.5 234 Z "/></g><g style="stroke-width: 0.5;stroke: rgb(128,128,128);stroke-opacity: 1.0;stroke-linecap: round;stroke-linejoin: round;shape-rendering:geometricPrecision;; fill: none" clip-path="url(#_506387257841082clip-1)"><path d="M 347.5 96.74 C 421.25 96.74 481.82 155.03 484.65 228.72 C 487.49 302.42 431.58 365.18 358.05 370.85 L 347.5 234 Z "/></g><g style="fill: rgb(71,70,76); fill-opacity: 1.0; stroke: none" clip-path="url(#_506387257841082clip-1)"><path d="M 358.05 370.85 C 306.71 374.81 257.48 349.7 230.54 305.82 L 347.5 234 Z "/></g><g style="stroke-width: 0.5;stroke: rgb(128,128,128);stroke-opacity: 1.0;stroke-linecap: round;stroke-linejoin: round;shape-rendering:geometricPrecision;; fill: none" clip-path="url(#_506387257841082clip-1)"><path d="M 358.05 370.85 C 306.71 374.81 257.48 349.7 230.54 305.82 L 347.5 234 Z "/></g><g style="fill: rgb(161,152,94); fill-opacity: 1.0; stroke: none" clip-path="url(#_506387257841082clip-1)"><path d="M 230.54 305.82 C 209.54 271.63 204.56 229.96 216.9 191.78 C 229.24 153.59 257.68 122.73 294.72 107.3 L 347.5 234 Z "/></g><g style="stroke-width: 0.5;stroke: rgb(128,128,128);stroke-opacity: 1.0;stroke-linecap: round;stroke-linejoin: round;shape-rendering:geometricPrecision;; fill: none" clip-path="url(#_506387257841082clip-1)"><path d="M 230.54 305.82 C 209.54 271.63 204.56 229.96 216.9 191.78 C 229.24 153.59 257.68 122.73 294.72 107.3 L 347.5 234 Z "/></g><g style="fill: rgb(241,208,158); fill-opacity: 1.0; stroke: none" clip-path="url(#_506387257841082clip-1)"><path d="M 294.72 107.3 C 311.45 100.33 329.38 96.74 347.5 96.74 L 347.5 234 Z "/></g><g style="stroke-width: 0.5;stroke: rgb(128,128,128);stroke-opacity: 1.0;stroke-linecap: round;stroke-linejoin: round;shape-rendering:geometricPrecision;; fill: none" clip-path="url(#_506387257841082clip-1)"><path d="M 294.72 107.3 C 311.45 100.33 329.38 96.74 347.5 96.74 L 347.5 234 Z "/></g><g style="stroke-width: 0.5;stroke: rgb(0,0,0);stroke-opacity: 1.0;stroke-linecap: square;shape-rendering:geometricPrecision;; fill: none" clip-path="url(#_506387257841082clip-1)"><path d="M 193.02 92.32 C 203.02 92.32 319.17 92.32 323.28 112.87"/></g><rect x="76.02" y="84.82" width="119" height="19" style="fill: rgb(151,151,151); fill-opacity: 0.5019608" clip-path="url(#_506387257841082clip-1)"/><rect x="74.02" y="82.82" width="119" height="19" style="fill: rgb(255,255,192); fill-opacity: 1.0" clip-path="url(#_506387257841082clip-1)"/><rect x="74.02" y="82.82" width="119" height="19" style="stroke-width: 0.5;stroke: rgb(0,0,0);stroke-opacity: 1.0;stroke-linecap: square;shape-rendering:geometricPrecision;; fill: none" clip-path="url(#_506387257841082clip-1)"/><g ><text x="76.02" y="96.83" style="fill: rgb(0,0,0); fill-opacity: 1.0; font-family: Tahoma; font-size: 12px;" clip-path="url(#_506387257841082clip-1)">Other = 13.6 (6.3%)</text></g><g style="stroke-width: 0.5;stroke: rgb(0,0,0);stroke-opacity: 1.0;stroke-linecap: square;shape-rendering:geometricPrecision;; fill: none" clip-path="url(#_506387257841082clip-1)"><path d="M 186.7 189.55 C 203.02 189.55 210.03 189.55 229.96 196"/></g><rect x="49.7" y="182.05" width="139" height="19" style="fill: rgb(151,151,151); fill-opacity: 0.5019608" clip-path="url(#_506387257841082clip-1)"/><rect x="47.7" y="180.05" width="139" height="19" style="fill: rgb(255,255,192); fill-opacity: 1.0" clip-path="url(#_506387257841082clip-1)"/><rect x="47.7" y="180.05" width="139" height="19" style="stroke-width: 0.5;stroke: rgb(0,0,0);stroke-opacity: 1.0;stroke-linecap: square;shape-rendering:geometricPrecision;; fill: none" clip-path="url(#_506387257841082clip-1)"/><g ><text x="49.7" y="194.06" style="fill: rgb(0,0,0); fill-opacity: 1.0; font-family: Tahoma; font-size: 12px;" clip-path="url(#_506387257841082clip-1)">Far East = 59.5 (27.5%)</text></g><g style="stroke-width: 0.5;stroke: rgb(0,0,0);stroke-opacity: 1.0;stroke-linecap: square;shape-rendering:geometricPrecision;; fill: none" clip-path="url(#_506387257841082clip-1)"><path d="M 190.86 362.71 C 203.02 362.71 281.86 362.71 291.38 344.05"/></g><rect x="57.86" y="355.21" width="135" height="19" style="fill: rgb(151,151,151); fill-opacity: 0.5019608" clip-path="url(#_506387257841082clip-1)"/><rect x="55.86" y="353.21" width="135" height="19" style="fill: rgb(255,255,192); fill-opacity: 1.0" clip-path="url(#_506387257841082clip-1)"/><rect x="55.86" y="353.21" width="135" height="19" style="stroke-width: 0.5;stroke: rgb(0,0,0);stroke-opacity: 1.0;stroke-linecap: square;shape-rendering:geometricPrecision;; fill: none" clip-path="url(#_506387257841082clip-1)"/><g ><text x="57.86" y="367.21" style="fill: rgb(0,0,0); fill-opacity: 1.0; font-family: Tahoma; font-size: 12px;" clip-path="url(#_506387257841082clip-1)">Europe = 37.8 (17.5%)</text></g><g style="stroke-width: 0.5;stroke: rgb(0,0,0);stroke-opacity: 1.0;stroke-linecap: square;shape-rendering:geometricPrecision;; fill: none" clip-path="url(#_506387257841082clip-1)"><path d="M 508.7 228.45 C 491.98 228.45 491.87 228.45 470.94 229.25"/></g><rect x="510.7" y="220.95" width="139" height="19" style="fill: rgb(151,151,151); fill-opacity: 0.5019608" clip-path="url(#_506387257841082clip-1)"/><rect x="508.7" y="218.95" width="139" height="19" style="fill: rgb(255,255,192); fill-opacity: 1.0" clip-path="url(#_506387257841082clip-1)"/><rect x="508.7" y="218.95" width="139" height="19" style="stroke-width: 0.5;stroke: rgb(0,0,0);stroke-opacity: 1.0;stroke-linecap: square;shape-rendering:geometricPrecision;; fill: none" clip-path="url(#_506387257841082clip-1)"/><g ><text x="510.7" y="232.95" style="fill: rgb(0,0,0); fill-opacity: 1.0; font-family: Tahoma; font-size: 12px;" clip-path="url(#_506387257841082clip-1)">NAFTA = 105.6 (48.8%)</text></g><rect x="13" y="62" width="669" height="344" style="stroke-width: 0.5;stroke: rgb(0,0,0);stroke-opacity: 1.0;stroke-linecap: round;stroke-linejoin: round;shape-rendering:crispEdges;; fill: none" clip-path="url(#_506387257841082clip-0)"/></svg>
